<svg width="28" height="28" viewBox="0 0 28 28" fill="none" xmlns="http://www.w3.org/2000/svg">
<circle cx="14" cy="14" r="14" fill="#E5E7EB"/>
<mask id="mask0_257_730" style="mask-type:alpha" maskUnits="userSpaceOnUse" x="0" y="0" width="28" height="28">
<circle cx="14" cy="14" r="14" fill="#E5E7EB"/>
</mask>
<g mask="url(#mask0_257_730)">
<circle cx="13.9996" cy="10.1817" r="5.09091" fill="#FDFDFD"/>
<path d="M5.85189 20.822C6.68711 18.0753 9.408 16.5454 12.2789 16.5454H15.721C18.5918 16.5454 21.3127 18.0753 22.1479 20.822C22.5264 22.0666 22.8324 23.4782 22.8966 24.9087C22.9118 25.2486 22.736 25.5657 22.4498 25.7497L14.9733 30.556C14.3803 30.9372 13.6195 30.9372 13.0265 30.556L5.55006 25.7497C5.26384 25.5657 5.08797 25.2486 5.10323 24.9087C5.16742 23.4782 5.47345 22.0666 5.85189 20.822Z" fill="#FDFDFD"/>
</g>
</svg>
