<svg width="243" height="219" viewBox="0 0 243 219" fill="none" xmlns="http://www.w3.org/2000/svg">
<path d="M172.394 202.255H50.3379C47.0668 202.251 43.9308 200.95 41.6178 198.638C39.3048 196.325 38.0037 193.19 38 189.919V28.3355C38.0037 25.0651 39.3048 21.9296 41.6178 19.6171C43.9308 17.3045 47.0668 16.0037 50.3379 16H172.394C175.665 16.0037 178.801 17.3045 181.114 19.6171C183.427 21.9296 184.728 25.0651 184.732 28.3355V189.919C184.728 193.19 183.427 196.325 181.114 198.638C178.801 200.95 175.665 202.251 172.394 202.255Z" fill="#E7EEEE"/>
<path d="M125.808 192.253H58.9166C55.9382 192.25 53.0827 191.065 50.9767 188.96C48.8706 186.854 47.686 183.999 47.6826 181.021V37.2337C47.686 34.2559 48.8706 31.401 50.9767 29.2954C53.0828 27.1897 55.9382 26.0053 58.9166 26.002H163.813C166.792 26.0053 169.647 27.1897 171.753 29.2954C173.859 31.401 175.044 34.2559 175.047 37.2337V143.024C175.033 156.076 169.84 168.589 160.609 177.818C151.378 187.047 138.862 192.239 125.808 192.253Z" fill="#FDFDFD"/>
<path d="M153.35 53.6065H69.3815C69.0219 53.6069 68.6657 53.5366 68.3333 53.3994C68.0009 53.2622 67.6988 53.0609 67.4441 52.807C67.1895 52.5531 66.9874 52.2515 66.8494 51.9195C66.7114 51.5875 66.6401 51.2315 66.6397 50.872C66.6392 50.5124 66.7096 50.1563 66.8468 49.8239C66.984 49.4916 67.1853 49.1895 67.4393 48.935C67.6933 48.6804 67.9949 48.4783 68.327 48.3403C68.6591 48.2023 69.0151 48.1311 69.3747 48.1306H153.35C154.076 48.1297 154.773 48.4173 155.287 48.9301C155.802 49.4429 156.091 50.139 156.092 50.8651C156.093 51.5913 155.805 52.288 155.292 52.8021C154.779 53.3162 154.083 53.6056 153.357 53.6065H153.35Z" fill="#0D2D53"/>
<path d="M153.35 64.4254H69.3812C68.6549 64.4254 67.9583 64.1369 67.4447 63.6234C66.9311 63.1099 66.6426 62.4135 66.6426 61.6873C66.6426 60.9611 66.9311 60.2647 67.4447 59.7512C67.9583 59.2377 68.6549 58.9492 69.3812 58.9492H153.35C154.076 58.9492 154.773 59.2377 155.286 59.7512C155.8 60.2647 156.088 60.9611 156.088 61.6873C156.088 62.4135 155.8 63.1099 155.286 63.6234C154.773 64.1369 154.076 64.4254 153.35 64.4254V64.4254Z" fill="#0D2D53"/>
<path d="M105.78 75.2442H69.3812C68.6549 75.2442 67.9583 74.9558 67.4447 74.4423C66.9311 73.9288 66.6426 73.2323 66.6426 72.5061C66.6426 71.78 66.9311 71.0835 67.4447 70.57C67.9583 70.0565 68.6549 69.7681 69.3812 69.7681H105.78C106.506 69.7681 107.202 70.0565 107.716 70.57C108.23 71.0835 108.518 71.78 108.518 72.5061C108.518 73.2323 108.23 73.9288 107.716 74.4423C107.202 74.9558 106.506 75.2442 105.78 75.2442V75.2442Z" fill="#0D2D53"/>
<path d="M153.35 97.9034H69.3815C68.6553 97.9043 67.9584 97.6167 67.4441 97.1039C66.9299 96.591 66.6406 95.895 66.6397 95.1688C66.6387 94.4427 66.9264 93.7459 67.4393 93.2318C67.9522 92.7177 68.6484 92.4284 69.3747 92.4275H153.35C154.076 92.4266 154.773 92.7142 155.287 93.227C155.802 93.7398 156.091 94.4359 156.092 95.162C156.093 95.8881 155.805 96.5849 155.292 97.099C154.779 97.6131 154.083 97.9024 153.357 97.9034H153.35Z" fill="#E5E7EB"/>
<path d="M153.35 108.722H69.3812C68.6549 108.722 67.9583 108.434 67.4447 107.92C66.9311 107.407 66.6426 106.71 66.6426 105.984C66.6426 105.258 66.9311 104.562 67.4447 104.048C67.9583 103.535 68.6549 103.246 69.3812 103.246H153.35C154.076 103.246 154.773 103.535 155.286 104.048C155.8 104.562 156.088 105.258 156.088 105.984C156.088 106.71 155.8 107.407 155.286 107.92C154.773 108.434 154.076 108.722 153.35 108.722Z" fill="#E5E7EB"/>
<path d="M105.78 119.541H69.3812C68.6549 119.541 67.9583 119.253 67.4447 118.739C66.9311 118.226 66.6426 117.529 66.6426 116.803C66.6426 116.077 66.9311 115.381 67.4447 114.867C67.9583 114.354 68.6549 114.065 69.3812 114.065H105.78C106.506 114.065 107.202 114.354 107.716 114.867C108.23 115.381 108.518 116.077 108.518 116.803C108.518 117.529 108.23 118.226 107.716 118.739C107.202 119.253 106.506 119.541 105.78 119.541V119.541Z" fill="#E5E7EB"/>
<path d="M153.35 142.2H69.3815C68.6553 142.201 67.9584 141.914 67.4441 141.401C66.9299 140.888 66.6406 140.192 66.6397 139.466C66.6387 138.74 66.9264 138.043 67.4393 137.529C67.9522 137.015 68.6484 136.725 69.3747 136.724H153.35C154.076 136.723 154.773 137.011 155.287 137.524C155.802 138.037 156.091 138.733 156.092 139.459C156.093 140.185 155.805 140.882 155.292 141.396C154.779 141.91 154.083 142.199 153.357 142.2H153.35Z" fill="#E5E7EB"/>
<path d="M153.35 153.019H69.3812C68.6549 153.019 67.9583 152.731 67.4447 152.217C66.9311 151.704 66.6426 151.007 66.6426 150.281C66.6426 149.555 66.9311 148.858 67.4447 148.345C67.9583 147.831 68.6549 147.543 69.3812 147.543H153.35C154.076 147.543 154.773 147.831 155.286 148.345C155.8 148.858 156.088 149.555 156.088 150.281C156.088 151.007 155.8 151.704 155.286 152.217C154.773 152.731 154.076 153.019 153.35 153.019V153.019Z" fill="#E5E7EB"/>
<path d="M105.779 163.838H69.3808C68.6554 163.837 67.9602 163.548 67.4477 163.034C66.9353 162.521 66.6475 161.825 66.6475 161.1C66.6475 160.375 66.9353 159.679 67.4477 159.166C67.9602 158.653 68.6554 158.363 69.3808 158.362H105.779C106.505 158.363 107.2 158.653 107.712 159.166C108.225 159.679 108.513 160.375 108.513 161.1C108.513 161.825 108.225 162.521 107.712 163.034C107.2 163.548 106.505 163.837 105.779 163.838V163.838Z" fill="#E5E7EB"/>
<path d="M203.095 180.428C205.238 182.17 208.387 181.844 210.129 179.701C211.87 177.558 211.544 174.409 209.401 172.667L203.095 180.428ZM171.095 154.428L203.095 180.428L209.401 172.667L177.401 146.667L171.095 154.428Z" fill="#A1A8B0"/>
<circle cx="150.748" cy="131.048" r="29.5" fill="#FDFDFD"/>
<path fill-rule="evenodd" clip-rule="evenodd" d="M150.748 168.548C170.906 168.548 187.248 152.206 187.248 132.048C187.248 111.889 170.906 95.5479 150.748 95.5479C130.59 95.5479 114.248 111.889 114.248 132.048C114.248 152.206 130.59 168.548 150.748 168.548ZM150.748 161.548C167.04 161.548 180.248 148.34 180.248 132.048C180.248 115.755 167.04 102.548 150.748 102.548C134.456 102.548 121.248 115.755 121.248 132.048C121.248 148.34 134.456 161.548 150.748 161.548Z" fill="#A1A8B0"/>
<path d="M163.395 119.844C162.64 119.091 161.584 118.701 160.46 118.758C159.336 118.816 158.235 119.318 157.398 120.153L139.156 138.395C138.741 138.809 138.404 139.292 138.164 139.818C137.924 140.343 137.786 140.901 137.757 141.458C137.728 142.015 137.809 142.561 137.995 143.065C138.182 143.569 138.47 144.021 138.844 144.395C139.218 144.768 139.67 145.057 140.173 145.243C140.677 145.43 141.224 145.511 141.781 145.482C142.338 145.453 142.895 145.315 143.421 145.074C143.947 144.834 144.43 144.497 144.844 144.083L163.086 125.841C163.921 125.004 164.422 123.903 164.48 122.779C164.538 121.654 164.148 120.599 163.395 119.844Z" fill="#E02D3C"/>
<path d="M138.843 119.844C139.598 119.091 140.654 118.701 141.778 118.758C142.902 118.816 144.003 119.318 144.84 120.153L163.082 138.395C163.497 138.809 163.834 139.292 164.074 139.818C164.314 140.343 164.453 140.901 164.482 141.458C164.511 142.015 164.429 142.561 164.243 143.065C164.056 143.569 163.768 144.021 163.394 144.395C163.02 144.768 162.569 145.057 162.065 145.243C161.561 145.43 161.015 145.511 160.458 145.482C159.9 145.453 159.343 145.315 158.817 145.074C158.292 144.834 157.808 144.497 157.394 144.083L139.152 125.841C138.317 125.004 137.816 123.903 137.758 122.779C137.7 121.654 138.09 120.599 138.843 119.844Z" fill="#E02D3C"/>
</svg>
