<svg width="500" height="399" viewBox="0 0 500 399" fill="none" xmlns="http://www.w3.org/2000/svg">
<path d="M439 327.4H55V327.65H439V327.4Z" fill="#EBEBEB"/>
<path d="M188.033 333.78H170.231V334.03H188.033V333.78Z" fill="#EBEBEB"/>
<path d="M407.335 339.14H363.813V339.39H407.335V339.14Z" fill="#EBEBEB"/>
<path d="M131.331 339.14H87.8089V339.39H131.331V339.14Z" fill="#EBEBEB"/>
<path d="M237.016 282.8H88.7228C86.3036 282.795 84.3452 280.24 84.3452 277.09V5.66C84.366 2.53 86.319 0.005 88.7228 0H237.016C239.437 0 241.401 2.556 241.401 5.71V277.09C241.401 280.243 239.437 282.8 237.016 282.8ZM88.7228 0.200001C86.4096 0.206001 84.5372 2.648 84.5372 5.66V277.09C84.5372 280.102 86.4096 282.544 88.7228 282.55H237.016C239.33 282.545 241.205 280.103 241.209 277.09V5.66C241.205 2.647 239.33 0.206001 237.016 0.200001H88.7228Z" fill="#EBEBEB"/>
<path d="M403.142 282.8H254.841C252.421 282.795 250.461 280.241 250.456 277.09V5.66C250.481 2.528 252.436 0.005 254.841 0H403.142C405.543 0.011 407.491 2.534 407.512 5.66V277.09C407.512 280.236 405.558 282.789 403.142 282.8ZM254.841 0.200001C252.527 0.206001 250.653 2.647 250.648 5.66V277.09C250.652 280.103 252.527 282.544 254.841 282.55H403.142C405.456 282.545 407.331 280.103 407.335 277.09V5.66C407.332 2.647 405.456 0.206001 403.142 0.200001H254.841Z" fill="#EBEBEB"/>
<path d="M179 264.457H40.2947V374.007H179V264.457Z" fill="#E0E0E0"/>
<path d="M154.384 264.457H27V374.007H154.384V264.457Z" fill="#EBEBEB"/>
<path d="M149.098 270.386H32.1339V300.298H149.098V270.386Z" fill="#F5F5F5"/>
<path d="M149.098 305.004H32.1339V334.917H149.098V305.004Z" fill="#F5F5F5"/>
<path d="M149.098 338.165H32.1339V368.078H149.098V338.165Z" fill="#F5F5F5"/>
<path d="M91.854 283.684C91.854 285.489 90.0015 286.951 87.7174 286.951C85.4323 286.951 83.5808 285.488 83.5808 283.684C83.5808 281.88 85.4333 280.417 87.7174 280.417C90.0015 280.416 91.854 281.879 91.854 283.684Z" fill="#FAFAFA"/>
<path d="M90.6922 350.1C90.6922 351.398 89.36 352.449 87.7174 352.449C86.0747 352.449 84.7425 351.397 84.7425 350.1C84.7425 348.801 86.0747 347.75 87.7174 347.75C89.36 347.75 90.6922 348.801 90.6922 350.1Z" fill="#FAFAFA"/>
<path d="M90.6922 319.515C90.6922 320.813 89.36 321.864 87.7174 321.864C86.0747 321.864 84.7425 320.812 84.7425 319.515C84.7425 318.216 86.0747 317.165 87.7174 317.165C89.36 317.165 90.6922 318.217 90.6922 319.515Z" fill="#FAFAFA"/>
<path d="M216.104 18.0771H47.3331V104.057H216.104V18.0771Z" fill="#E0E0E0"/>
<path d="M212.851 18.0771H44.0807V104.057H212.851V18.0771Z" fill="#F0F0F0"/>
<path d="M206.638 22.1714H48.9283V100.638H206.638V22.1714Z" fill="#FAFAFA"/>
<path d="M201.31 23.2871L156.451 100.638H138.012L181.162 23.2871H201.31Z" fill="white"/>
<path d="M164.55 23.2871L118.986 100.638H97.3691L145.013 23.2871H164.55Z" fill="white"/>
<path d="M215.882 18.0771H44.0807V23.2878H215.882V18.0771Z" fill="#E0E0E0"/>
<path d="M215.882 24.6357H44.0807V29.8464H215.882V24.6357Z" fill="#E0E0E0"/>
<path d="M215.882 31.1943H44.0807V36.405H215.882V31.1943Z" fill="#E0E0E0"/>
<path d="M215.882 37.7529H44.0807V42.9636H215.882V37.7529Z" fill="#E0E0E0"/>
<path d="M215.882 44.312H44.0807V49.5226H215.882V44.312Z" fill="#E0E0E0"/>
<path d="M221 104.057H40.3993V110.549H221V104.057Z" fill="#E0E0E0"/>
<path d="M472.166 236V365.999H432.662L430.556 352.982H277.052V236H472.166Z" fill="#E0E0E0"/>
<path d="M445.114 236V365.999H432.662L430.556 352.982H274.001L271.524 365.999H250V236H445.114Z" fill="#EBEBEB"/>
<path d="M434.105 245.117H259.91V289.907H434.105V245.117Z" stroke="#FAFAFA" stroke-miterlimit="10"/>
<path d="M434.105 298.822H259.91V344.064H434.105V298.822Z" stroke="#FAFAFA" stroke-miterlimit="10"/>
<path d="M469.303 19.438H405.295V106.01H469.303V19.438Z" fill="#E0E0E0"/>
<path d="M466.097 19.3838H402.089V105.956H466.097V19.3838Z" fill="#E6E6E6"/>
<path d="M462.777 22.623H405.295V102.826H462.777V22.623Z" fill="#FAFAFA"/>
<path d="M456.917 85.4233H412.981V87.2969H456.917V85.4233Z" fill="#E0E0E0"/>
<path d="M456.917 90.2139H412.981V92.0875H456.917V90.2139Z" fill="#E0E0E0"/>
<path d="M456.917 95.0029H412.981V96.8765H456.917V95.0029Z" fill="#E0E0E0"/>
<path d="M450.632 52.2974C450.632 60.959 443.61 67.9815 434.948 67.9815C426.287 67.9815 419.264 60.959 419.264 52.2974C419.264 43.6357 426.287 36.6133 434.948 36.6133C443.611 36.6133 450.632 43.6346 450.632 52.2974Z" stroke="#E0E0E0" stroke-miterlimit="10"/>
<path d="M444.248 128.361H389.591V183.019H444.248V128.361Z" fill="#E0E0E0"/>
<path d="M439.572 128.361H384.915V183.019H439.572V128.361Z" fill="#EBEBEB"/>
<path d="M435.794 132.139H388.693V179.24H435.794V132.139Z" fill="#FAFAFA"/>
<path d="M424.736 143.197H399.751V168.182H424.736V143.197Z" fill="#E0E0E0"/>
<path d="M248.081 398.708C340.402 398.708 415.242 393.05 415.242 386.07C415.242 379.09 340.402 373.432 248.081 373.432C155.761 373.432 80.92 379.09 80.92 386.07C80.92 393.05 155.761 398.708 248.081 398.708Z" fill="#F5F5F5"/>
<path d="M246.497 319.208H184.982V388.641H246.497V319.208Z" fill="#4CB8B8"/>
<path d="M277.255 319.208H215.74V388.641H277.255V319.208Z" fill="#4CB8B8"/>
<path opacity="0.7" d="M246.497 319.208H184.982V388.641H246.497V319.208Z" fill="white"/>
<path opacity="0.2" d="M277.255 319.208H246.434V388.641H277.255V319.208Z" fill="white"/>
<path d="M261.155 367.795C265.477 367.694 268.84 361.56 268.666 354.095C268.492 346.629 264.847 340.658 260.525 340.759C256.202 340.86 252.839 346.994 253.013 354.459C253.187 361.925 256.832 367.896 261.155 367.795Z" fill="white"/>
<path d="M265.605 351.994L262.264 352.072L262.132 346.406L259.55 346.466L259.683 352.132L256.007 352.218L256.11 356.625L259.785 356.539L259.916 362.152L262.498 362.092L262.367 356.479L265.708 356.401L265.605 351.994Z" fill="#E02D3C"/>
<path d="M223.231 319.208H210.766V331.673H223.231V319.208Z" fill="#F5F5F5"/>
<path d="M223.231 344.098H210.766V388.642H223.231V344.098Z" fill="#F5F5F5"/>
<path d="M266.212 262.26H215.74V319.228H266.212V262.26Z" fill="#4CB8B8"/>
<path d="M291.448 262.26H240.976V319.228H291.448V262.26Z" fill="#4CB8B8"/>
<path opacity="0.7" d="M258.337 262.26H215.74V319.228H258.337V262.26Z" fill="white"/>
<path opacity="0.2" d="M291.448 262.26H258.337V319.228H291.448V262.26Z" fill="white"/>
<path d="M281.314 290.888C281.457 297.014 278.698 302.047 275.151 302.129C271.605 302.212 268.614 297.313 268.471 291.187C268.328 285.061 271.087 280.028 274.634 279.946C278.18 279.864 281.171 284.763 281.314 290.888Z" fill="white"/>
<path d="M278.788 289.16L276.047 289.224L275.938 284.575L273.82 284.625L273.929 289.273L270.913 289.344L270.998 292.959L274.013 292.889L274.121 297.495L276.239 297.445L276.132 292.84L278.873 292.776L278.788 289.16Z" fill="#E02D3C"/>
<path d="M236.895 262.26H226.668V319.228H236.895V262.26Z" fill="#F5F5F5"/>
<path d="M324.389 185.103C324.389 185.103 309.658 254.856 308.373 278.003C307.089 301.15 313.14 359.293 313.14 359.293L331.96 362.263L335.552 288.044L343.802 231.481C343.802 231.481 352.442 277.513 356.161 288.252C359.88 298.991 377.625 330.217 392.293 355.204L404.908 346.028C404.908 346.028 381.357 278.693 377.342 265.538C373.327 252.384 376.034 196.637 363.643 180.807L324.389 185.103Z" fill="#4CB8B8"/>
<path opacity="0.4" d="M324.389 185.103C324.389 185.103 309.658 254.856 308.373 278.003C307.089 301.15 313.14 359.293 313.14 359.293L331.96 362.263L335.552 288.044L343.802 231.481C343.802 231.481 352.442 277.513 356.161 288.252C359.88 298.991 377.625 330.217 392.293 355.204L404.908 346.028C404.908 346.028 381.357 278.693 377.342 265.538C373.327 252.384 376.034 196.637 363.643 180.807L324.389 185.103Z" fill="white"/>
<path d="M327.891 378.597C327.801 379.158 318.036 377.041 318.036 377.041L317.375 367.403L317.122 363.62L327.076 362.742C327.076 362.742 327.248 365.62 327.429 368.923C327.674 373.24 327.946 378.271 327.891 378.597Z" fill="#FFCC92"/>
<path opacity="0.2" d="M327.43 368.923L317.376 367.403L317.123 363.62L327.077 362.742C327.077 362.742 327.249 365.621 327.43 368.923Z" fill="black"/>
<path d="M310.889 380.429L310.491 379.88C310.367 379.709 307.459 375.677 307.913 373.696C308.008 373.285 308.234 372.981 308.587 372.792C309.011 372.566 309.336 372.662 309.534 372.783C310.959 373.652 310.91 379.13 310.9 379.751L310.889 380.429ZM309.089 373.108C309.012 373.108 308.918 373.129 308.802 373.192C308.566 373.318 308.42 373.516 308.355 373.798C308.042 375.164 309.662 377.829 310.448 379.018C310.422 377.095 310.191 373.714 309.299 373.17C309.249 373.138 309.182 373.108 309.089 373.108Z" fill="#4CB8B8"/>
<path d="M309.882 380.486L309.297 380.247C308.678 379.995 303.24 377.728 302.902 375.782C302.833 375.384 302.975 375.014 303.312 374.711C303.666 374.396 304.082 374.274 304.546 374.357C306.749 374.739 309.466 379.719 309.58 379.93L309.882 380.486ZM304.274 374.785C304.029 374.785 303.813 374.873 303.616 375.049C303.391 375.25 303.306 375.459 303.349 375.706C303.572 376.987 306.969 378.734 308.852 379.566C308.067 378.239 306.045 375.076 304.471 374.803C304.403 374.791 304.337 374.785 304.274 374.785Z" fill="#4CB8B8"/>
<path d="M327.567 378.064L317.473 376.471C316.844 376.372 316.208 376.509 315.674 376.856C314.25 377.785 311.109 379.62 307.921 380.076C303.604 380.693 299.761 379.843 299.403 381.085C299.045 382.327 299.457 384.34 301.258 385.273C302.675 386.008 320.076 388.712 327.417 389.83C329.064 390.081 330.501 388.716 330.346 387.057L329.719 380.356C329.609 379.19 328.724 378.246 327.567 378.064Z" fill="#222221"/>
<path d="M310.674 356.977L312.245 365.304L332.855 367.259L333.462 358.843L310.674 356.977Z" fill="#4CB8B8"/>
<path d="M411.244 356.444C411.525 356.942 402.557 361.349 402.557 361.349L396.621 354.824L393.508 351.394L396.675 348.399L400.765 344.526C400.765 344.526 401.19 345.006 401.878 345.766C402.774 346.78 404.122 348.3 405.525 349.874C408.222 352.924 411.099 356.19 411.244 356.444Z" fill="#FFCC92"/>
<path opacity="0.2" d="M405.525 349.874L396.62 354.824L393.507 351.394L396.674 348.399L401.877 345.766C402.774 346.779 404.122 348.299 405.525 349.874Z" fill="black"/>
<path d="M399.653 365.342L399.126 365.103C398.94 365.019 394.545 363.012 394.164 361.244C394.083 360.867 394.175 360.523 394.438 360.224C394.77 359.846 395.16 359.689 395.589 359.759C397.37 360.048 399.223 364.323 399.429 364.809L399.653 365.342ZM395.398 360.196C395.174 360.196 394.97 360.304 394.778 360.523C394.61 360.714 394.556 360.913 394.607 361.149C394.848 362.27 397.328 363.714 398.763 364.429C398.071 362.951 396.654 360.391 395.517 360.207C395.477 360.2 395.437 360.196 395.398 360.196Z" fill="#4CB8B8"/>
<path d="M393.068 367.441C391.96 367.441 391.016 367.268 390.52 366.788C390.144 366.425 390.032 365.927 390.19 365.311C390.359 364.653 390.752 364.182 391.359 363.909C393.97 362.733 399.802 365.699 400.049 365.826L400.553 366.085L400.01 366.245C399.783 366.312 395.893 367.441 393.068 367.441ZM392.877 364.083C392.373 364.083 391.919 364.154 391.545 364.323C391.063 364.539 390.763 364.9 390.628 365.425C390.511 365.877 390.579 366.218 390.834 366.463C392.032 367.621 396.916 366.615 399.309 365.972C398.091 365.401 395.042 364.083 392.877 364.083Z" fill="#4CB8B8"/>
<path d="M410.661 356.082L401.758 361.098C401.203 361.411 400.789 361.913 400.587 362.517C400.047 364.129 398.724 367.518 396.507 369.854C393.505 373.018 389.965 374.736 390.455 375.932C390.945 377.128 392.518 378.45 394.509 378.064C396.076 377.76 411.397 369.08 417.847 365.399C419.294 364.573 419.574 362.612 418.422 361.407L413.771 356.542C412.961 355.697 411.681 355.507 410.661 356.082Z" fill="#222221"/>
<path d="M384.905 350.933L391.305 356.486L408.677 345.225L403.929 338.251L384.905 350.933Z" fill="#4CB8B8"/>
<path d="M345.276 98.0274C345.83 97.7204 357.32 97.1994 368.271 99.5154C379.222 101.83 359.674 115.348 359.674 115.348L353.528 139.931L342.278 140.035L340.924 105.126L345.276 98.0274Z" fill="#EBEBEB"/>
<path d="M368.271 99.5142L344.412 137.159L347.055 97.6802C347.055 97.6802 338.383 97.8962 335.695 98.6942C333.007 99.4932 330.66 105.751 328.761 114.354C326.862 122.957 323.899 143.565 323.899 143.565L310.187 258.524C310.187 258.524 357.063 268.559 379.14 260.754C379.14 260.754 370.836 157.465 372.212 151.086C373.588 144.707 378.01 121.372 378.01 121.372C378.01 121.372 384.147 109.719 381.476 106.286C378.804 102.853 368.271 99.5142 368.271 99.5142Z" fill="#4CB8B8"/>
<path d="M340.135 171.955L343.542 263.214" stroke="white" stroke-width="0.75" stroke-miterlimit="10" stroke-linecap="round" stroke-linejoin="round"/>
<path d="M337.23 100.628L254.512 128.822L275.345 189.946L358.063 161.753L337.23 100.628Z" fill="#4CB8B8"/>
<path d="M337.239 100.638L275.349 189.958L263.729 184.694L242.897 123.567L325.619 95.375L337.239 100.638Z" fill="#4CB8B8"/>
<path opacity="0.7" d="M337.239 100.638L254.516 128.831L275.349 189.958L263.729 184.694L242.897 123.567L325.619 95.375L337.239 100.638Z" fill="white"/>
<path opacity="0.46" d="M337.23 100.628L254.512 128.822L275.345 189.946L358.063 161.753L337.23 100.628Z" fill="white"/>
<path d="M321.139 163.432C331.158 155.228 332.63 140.455 324.426 130.436C316.222 120.416 301.45 118.944 291.43 127.148C281.411 135.352 279.939 150.125 288.143 160.144C296.347 170.164 311.119 171.635 321.139 163.432Z" fill="#FAFAFA"/>
<path d="M318.468 136.758L309.082 140.239L305.665 131.024L298.412 133.714L301.83 142.928L291.506 146.756L294.163 153.924L304.488 150.095L307.873 159.225L315.125 156.535L311.74 147.405L321.125 143.925L318.468 136.758Z" fill="#E02D3C"/>
<path d="M346.968 49.1392V34.5872C346.968 34.5872 362.898 27.4252 378.129 42.0642L371.094 56.1772L346.968 49.1392Z" fill="#4CB8B8"/>
<path d="M362.32 36.6946L360.515 36.3384L359.425 41.8639L361.23 42.2202L362.32 36.6946Z" fill="white"/>
<path d="M358.264 37.8305L357.908 39.6357L363.434 40.7261L363.79 38.9209L358.264 37.8305Z" fill="white"/>
<path d="M370.034 75.9542C367.12 80.1442 364.451 79.5562 364.451 79.5562C363.284 81.8912 361.076 83.7912 361.076 83.7912C360.605 96.8582 364.451 100.387 364.451 100.387C360.488 106.559 355.51 106.341 350.506 104.595C345.502 102.849 345.248 98.8672 345.248 98.8672C349.773 96.6502 349.827 93.1752 349.175 90.7952C348.75 89.2572 348.035 88.1712 348.035 88.1712C339.547 85.8452 337.103 77.7012 337.683 70.0182C338.262 62.3352 341.058 56.5162 341.058 56.5162L346.062 48.9512L365.608 52.9152L366.658 63.2672L362.703 70.9502C369.681 65.8282 372.939 71.7642 370.034 75.9542Z" fill="#FFCC92"/>
<path d="M350.871 74.6897C351.708 74.7789 352.262 74.9386 352.279 74.9434C352.465 74.9984 352.572 75.1949 352.516 75.382C352.46 75.5681 352.266 75.6772 352.077 75.6198C352.03 75.6068 347.17 74.2167 344.673 77.6736C344.561 77.8316 344.341 77.8664 344.181 77.7529C344.024 77.6385 343.988 77.4185 344.103 77.2608C346.004 74.6284 349.083 74.4991 350.871 74.6897Z" fill="#263238"/>
<path d="M345.627 71.3321C345.835 71.2901 346.69 64.9521 346.69 64.9521L342.153 70.4101C342.153 70.4101 343.501 71.7581 345.627 71.3321Z" fill="#CCA375"/>
<path d="M352.661 65.0773C352.55 65.8723 352.061 66.4613 351.57 66.3923C351.078 66.3233 350.769 65.6233 350.88 64.8283C350.991 64.0333 351.48 63.4443 351.971 63.5133C352.463 63.5823 352.772 64.2823 352.661 65.0773Z" fill="#263238"/>
<path d="M343.044 64.1994C342.933 64.9944 342.444 65.5834 341.953 65.5144C341.461 65.4454 341.152 64.7454 341.263 63.9504C341.374 63.1554 341.863 62.5664 342.355 62.6354C342.846 62.7044 343.155 63.4054 343.044 64.1994Z" fill="#263238"/>
<path d="M356.583 61.5042C356.407 61.5042 356.237 61.4042 356.157 61.2332C354.97 58.6972 353.291 59.0292 353.218 59.0432C352.97 59.0972 352.715 58.9402 352.658 58.6892C352.6 58.4382 352.753 58.1882 353.003 58.1272C353.103 58.1042 355.481 57.5712 357.009 60.8342C357.119 61.0692 357.017 61.3492 356.782 61.4592C356.718 61.4902 356.65 61.5042 356.583 61.5042Z" fill="#263238"/>
<path d="M339.933 59.8254C339.816 59.8254 339.7 59.7824 339.608 59.6954C339.421 59.5154 339.413 59.2184 339.593 59.0304C339.705 58.9124 342.387 56.1674 345.773 57.5214C346.015 57.6184 346.131 57.8914 346.035 58.1334C345.938 58.3754 345.662 58.4894 345.424 58.3954C342.612 57.2704 340.296 59.6554 340.272 59.6804C340.181 59.7764 340.057 59.8254 339.933 59.8254Z" fill="#263238"/>
<path opacity="0.2" d="M352.37 87.6914C352.28 87.8454 350.958 89.9714 349.176 90.7954C348.751 89.2574 348.036 88.1714 348.036 88.1714C348.036 88.1714 350.641 88.4334 352.37 87.6914Z" fill="black"/>
<path d="M364.654 53.8784C364.654 53.8784 347.783 58.3874 341.062 56.0024C334.341 53.6174 336.687 45.3514 337.601 44.5714C338.844 43.5104 341.537 47.8894 341.537 47.8894C341.537 47.8894 339.329 43.1984 341.062 42.1684C342.795 41.1384 343.102 48.1184 349.356 47.4314C355.61 46.7454 373.116 41.9394 374.146 52.9234C375.176 63.9074 371.063 72.1834 371.063 72.1834C371.063 72.1834 370.134 66.2024 362.7 70.9474C362.7 70.9474 360.232 69.1924 362.704 66.7674C366.97 62.5844 365.5 57.0704 364.654 53.8784Z" fill="#263238"/>
<path d="M362.859 53.0275C362.859 53.0275 359.934 62.6145 365.315 62.1525C370.696 61.6895 367.396 51.6875 367.396 51.6875L362.859 53.0275Z" fill="#263238"/>
<path d="M348.688 47.9755C348.688 47.9755 345.171 45.3805 346.07 43.4985C346.969 41.6155 348.369 46.1585 355.383 45.3335C362.397 44.5085 370.707 43.8735 372.25 48.5255C373.793 53.1785 358.268 49.6275 358.268 49.6275L348.689 51.6875V47.9755H348.688Z" fill="#263238"/>
<path d="M347.465 162.464L340.703 160.546C340.703 160.546 332.683 160.059 332.033 163.113C331.383 166.167 330.99 171.418 334.21 171.842C337.429 172.267 347.286 171.638 347.286 171.638L347.465 162.464Z" fill="#FFCC92"/>
<path d="M370.575 116.035L381.476 106.287C381.476 106.287 394.993 136.245 395.747 147.822C396.502 159.4 387.603 164.526 380.053 166.468C372.503 168.41 347.476 173.581 347.476 173.581L346.127 159.662C346.127 159.662 372.781 155.115 383.045 150.402C383.045 150.402 373.767 123.55 370.575 116.035Z" fill="#4CB8B8"/>
<path opacity="0.1" d="M347.475 173.581L372.696 168.194L372.773 171.989L347.475 173.581Z" fill="black"/>
<path d="M350.504 104.592L353.368 112.167C353.368 112.167 359.89 107.573 365.894 100.754L361.729 93.834C361.729 93.834 357.922 101.408 350.504 104.592Z" fill="#FAFAFA"/>
<path d="M348.396 96.2988C348.396 96.2988 348.453 100.986 350.504 104.592L347.371 111.557C347.371 111.557 342.453 107.291 343.066 99.2498L348.396 96.2988Z" fill="#FAFAFA"/>
<path d="M47.08 197.4V184.44L71.64 149.4H88.84V183.8H95V197.4H88.84V207H73V197.4H47.08ZM74.2 167.08L63.16 183.8H74.2V167.08ZM101.433 176.92C101.433 167.747 103.299 160.52 107.033 155.24C110.766 149.96 116.633 147.32 124.633 147.32C132.633 147.32 138.499 149.96 142.233 155.24C146.019 160.52 147.913 167.747 147.913 176.92C147.913 186.2 146.046 193.48 142.313 198.76C138.579 204.04 132.686 206.68 124.633 206.68C116.579 206.68 110.686 204.04 106.953 198.76C103.273 193.48 101.433 186.2 101.433 176.92ZM132.393 176.92C132.393 172.12 131.886 168.467 130.873 165.96C129.859 163.4 127.779 162.12 124.633 162.12C121.486 162.12 119.406 163.4 118.393 165.96C117.379 168.467 116.873 172.12 116.873 176.92C116.873 181.827 117.353 185.56 118.312 188.12C119.326 190.627 121.433 191.88 124.633 191.88C127.833 191.88 129.913 190.627 130.873 188.12C131.886 185.56 132.393 181.827 132.393 176.92ZM154.971 197.4V184.44L179.531 149.4H196.731V183.8H202.891V197.4H196.731V207H180.891V197.4H154.971ZM182.091 167.08L171.051 183.8H182.091V167.08Z" fill="#038992"/>
<path d="M74.2312 234.12C73.9212 234.12 73.6812 234.035 73.5112 233.865C73.3512 233.685 73.2712 233.44 73.2712 233.13V224.4C73.2712 224.08 73.3562 223.84 73.5262 223.68C73.6962 223.51 73.9362 223.425 74.2462 223.425H77.8612C79.0212 223.425 79.9162 223.715 80.5462 224.295C81.1762 224.875 81.4912 225.685 81.4912 226.725C81.4912 227.765 81.1762 228.58 80.5462 229.17C79.9162 229.75 79.0212 230.04 77.8612 230.04H75.1912V233.13C75.1912 233.44 75.1112 233.685 74.9512 233.865C74.7912 234.035 74.5512 234.12 74.2312 234.12ZM75.1912 228.525H77.5612C78.2412 228.525 78.7562 228.375 79.1062 228.075C79.4562 227.765 79.6312 227.315 79.6312 226.725C79.6312 226.135 79.4562 225.69 79.1062 225.39C78.7562 225.09 78.2412 224.94 77.5612 224.94H75.1912V228.525ZM84.9398 234.15C84.4098 234.15 83.9348 234.05 83.5148 233.85C83.1048 233.64 82.7798 233.36 82.5398 233.01C82.3098 232.66 82.1948 232.265 82.1948 231.825C82.1948 231.285 82.3348 230.86 82.6148 230.55C82.8948 230.23 83.3498 230 83.9798 229.86C84.6098 229.72 85.4548 229.65 86.5148 229.65H87.2648V230.73H86.5298C85.9098 230.73 85.4148 230.76 85.0448 230.82C84.6748 230.88 84.4098 230.985 84.2498 231.135C84.0998 231.275 84.0248 231.475 84.0248 231.735C84.0248 232.065 84.1398 232.335 84.3698 232.545C84.5998 232.755 84.9198 232.86 85.3298 232.86C85.6598 232.86 85.9498 232.785 86.1998 232.635C86.4598 232.475 86.6648 232.26 86.8148 231.99C86.9648 231.72 87.0398 231.41 87.0398 231.06V229.335C87.0398 228.835 86.9298 228.475 86.7098 228.255C86.4898 228.035 86.1198 227.925 85.5998 227.925C85.3098 227.925 84.9948 227.96 84.6548 228.03C84.3248 228.1 83.9748 228.22 83.6048 228.39C83.4148 228.48 83.2448 228.505 83.0948 228.465C82.9548 228.425 82.8448 228.345 82.7648 228.225C82.6848 228.095 82.6448 227.955 82.6448 227.805C82.6448 227.655 82.6848 227.51 82.7648 227.37C82.8448 227.22 82.9798 227.11 83.1698 227.04C83.6298 226.85 84.0698 226.715 84.4898 226.635C84.9198 226.555 85.3098 226.515 85.6598 226.515C86.3798 226.515 86.9698 226.625 87.4298 226.845C87.8998 227.065 88.2498 227.4 88.4798 227.85C88.7098 228.29 88.8248 228.86 88.8248 229.56V233.16C88.8248 233.47 88.7498 233.71 88.5998 233.88C88.4498 234.04 88.2348 234.12 87.9548 234.12C87.6748 234.12 87.4548 234.04 87.2948 233.88C87.1448 233.71 87.0698 233.47 87.0698 233.16V232.44H87.1898C87.1198 232.79 86.9798 233.095 86.7698 233.355C86.5698 233.605 86.3148 233.8 86.0048 233.94C85.6948 234.08 85.3398 234.15 84.9398 234.15ZM94.1479 236.85C93.6079 236.85 93.0829 236.8 92.5729 236.7C92.0729 236.6 91.6179 236.445 91.2079 236.235C91.0179 236.135 90.8879 236.015 90.8179 235.875C90.7579 235.735 90.7379 235.59 90.7579 235.44C90.7879 235.3 90.8479 235.175 90.9379 235.065C91.0379 234.955 91.1579 234.88 91.2979 234.84C91.4379 234.8 91.5829 234.82 91.7329 234.9C92.1729 235.12 92.5879 235.26 92.9779 235.32C93.3779 235.39 93.7179 235.425 93.9979 235.425C94.6679 235.425 95.1679 235.26 95.4979 234.93C95.8379 234.61 96.0079 234.13 96.0079 233.49V232.14H96.1429C95.9929 232.65 95.6779 233.06 95.1979 233.37C94.7279 233.67 94.1929 233.82 93.5929 233.82C92.9329 233.82 92.3579 233.67 91.8679 233.37C91.3779 233.06 90.9979 232.63 90.7279 232.08C90.4579 231.53 90.3229 230.89 90.3229 230.16C90.3229 229.61 90.3979 229.115 90.5479 228.675C90.7079 228.225 90.9279 227.84 91.2079 227.52C91.4979 227.2 91.8429 226.955 92.2429 226.785C92.6529 226.605 93.1029 226.515 93.5929 226.515C94.2129 226.515 94.7529 226.67 95.2129 226.98C95.6829 227.28 95.9879 227.68 96.1279 228.18L95.9779 228.555V227.49C95.9779 227.18 96.0579 226.945 96.2179 226.785C96.3879 226.625 96.6179 226.545 96.9079 226.545C97.2079 226.545 97.4379 226.625 97.5979 226.785C97.7579 226.945 97.8379 227.18 97.8379 227.49V233.265C97.8379 234.455 97.5229 235.35 96.8929 235.95C96.2629 236.55 95.3479 236.85 94.1479 236.85ZM94.1029 232.395C94.4929 232.395 94.8279 232.305 95.1079 232.125C95.3879 231.945 95.6029 231.69 95.7529 231.36C95.9129 231.02 95.9929 230.62 95.9929 230.16C95.9929 229.47 95.8229 228.93 95.4829 228.54C95.1429 228.14 94.6829 227.94 94.1029 227.94C93.7129 227.94 93.3779 228.03 93.0979 228.21C92.8179 228.39 92.5979 228.645 92.4379 228.975C92.2879 229.305 92.2129 229.7 92.2129 230.16C92.2129 230.85 92.3829 231.395 92.7229 231.795C93.0629 232.195 93.5229 232.395 94.1029 232.395ZM103.396 234.15C102.566 234.15 101.851 233.995 101.251 233.685C100.651 233.375 100.186 232.935 99.8557 232.365C99.5357 231.795 99.3757 231.12 99.3757 230.34C99.3757 229.58 99.5307 228.915 99.8407 228.345C100.161 227.775 100.596 227.33 101.146 227.01C101.706 226.68 102.341 226.515 103.051 226.515C103.571 226.515 104.036 226.6 104.446 226.77C104.866 226.94 105.221 227.185 105.511 227.505C105.811 227.825 106.036 228.215 106.186 228.675C106.346 229.125 106.426 229.635 106.426 230.205C106.426 230.385 106.361 230.525 106.231 230.625C106.111 230.715 105.936 230.76 105.706 230.76H100.891V229.68H105.106L104.866 229.905C104.866 229.445 104.796 229.06 104.656 228.75C104.526 228.44 104.331 228.205 104.071 228.045C103.821 227.875 103.506 227.79 103.126 227.79C102.706 227.79 102.346 227.89 102.046 228.09C101.756 228.28 101.531 228.555 101.371 228.915C101.221 229.265 101.146 229.685 101.146 230.175V230.28C101.146 231.1 101.336 231.715 101.716 232.125C102.106 232.525 102.676 232.725 103.426 232.725C103.686 232.725 103.976 232.695 104.296 232.635C104.626 232.565 104.936 232.45 105.226 232.29C105.436 232.17 105.621 232.12 105.781 232.14C105.941 232.15 106.066 232.205 106.156 232.305C106.256 232.405 106.316 232.53 106.336 232.68C106.356 232.82 106.326 232.965 106.246 233.115C106.176 233.265 106.051 233.395 105.871 233.505C105.521 233.725 105.116 233.89 104.656 234C104.206 234.1 103.786 234.15 103.396 234.15ZM113.063 234.12C112.773 234.12 112.548 234.04 112.388 233.88C112.238 233.72 112.163 233.49 112.163 233.19V224.265C112.163 223.955 112.238 223.72 112.388 223.56C112.548 223.39 112.753 223.305 113.003 223.305C113.233 223.305 113.403 223.35 113.513 223.44C113.633 223.52 113.773 223.66 113.933 223.86L119.678 231.315H119.288V224.22C119.288 223.93 119.363 223.705 119.513 223.545C119.673 223.385 119.898 223.305 120.188 223.305C120.478 223.305 120.698 223.385 120.848 223.545C120.998 223.705 121.073 223.93 121.073 224.22V233.22C121.073 233.5 121.003 233.72 120.863 233.88C120.723 234.04 120.533 234.12 120.293 234.12C120.063 234.12 119.878 234.075 119.738 233.985C119.608 233.895 119.463 233.75 119.303 233.55L113.573 226.095H113.948V233.19C113.948 233.49 113.873 233.72 113.723 233.88C113.573 234.04 113.353 234.12 113.063 234.12ZM126.549 234.15C125.789 234.15 125.129 233.995 124.569 233.685C124.009 233.375 123.574 232.935 123.264 232.365C122.954 231.785 122.799 231.105 122.799 230.325C122.799 229.735 122.884 229.21 123.054 228.75C123.234 228.28 123.489 227.88 123.819 227.55C124.149 227.21 124.544 226.955 125.004 226.785C125.464 226.605 125.979 226.515 126.549 226.515C127.309 226.515 127.969 226.67 128.529 226.98C129.089 227.29 129.524 227.73 129.834 228.3C130.144 228.87 130.299 229.545 130.299 230.325C130.299 230.915 130.209 231.445 130.029 231.915C129.859 232.385 129.609 232.79 129.279 233.13C128.949 233.46 128.554 233.715 128.094 233.895C127.634 234.065 127.119 234.15 126.549 234.15ZM126.549 232.725C126.919 232.725 127.244 232.635 127.524 232.455C127.804 232.275 128.019 232.01 128.169 231.66C128.329 231.3 128.409 230.855 128.409 230.325C128.409 229.525 128.239 228.93 127.899 228.54C127.559 228.14 127.109 227.94 126.549 227.94C126.179 227.94 125.854 228.03 125.574 228.21C125.294 228.38 125.074 228.645 124.914 229.005C124.764 229.355 124.689 229.795 124.689 230.325C124.689 231.115 124.859 231.715 125.199 232.125C125.539 232.525 125.989 232.725 126.549 232.725ZM135.133 234.15C134.483 234.15 133.938 234.04 133.498 233.82C133.068 233.6 132.748 233.28 132.538 232.86C132.328 232.43 132.223 231.9 132.223 231.27V228.075H131.443C131.203 228.075 131.018 228.015 130.888 227.895C130.758 227.765 130.693 227.59 130.693 227.37C130.693 227.14 130.758 226.965 130.888 226.845C131.018 226.725 131.203 226.665 131.443 226.665H132.223V225.3C132.223 224.99 132.303 224.755 132.463 224.595C132.633 224.435 132.868 224.355 133.168 224.355C133.468 224.355 133.698 224.435 133.858 224.595C134.018 224.755 134.098 224.99 134.098 225.3V226.665H135.688C135.928 226.665 136.113 226.725 136.243 226.845C136.373 226.965 136.438 227.14 136.438 227.37C136.438 227.59 136.373 227.765 136.243 227.895C136.113 228.015 135.928 228.075 135.688 228.075H134.098V231.165C134.098 231.645 134.203 232.005 134.413 232.245C134.623 232.485 134.963 232.605 135.433 232.605C135.603 232.605 135.753 232.59 135.883 232.56C136.013 232.53 136.128 232.51 136.228 232.5C136.348 232.49 136.448 232.53 136.528 232.62C136.608 232.7 136.648 232.87 136.648 233.13C136.648 233.33 136.613 233.51 136.543 233.67C136.483 233.82 136.368 233.925 136.198 233.985C136.068 234.025 135.898 234.06 135.688 234.09C135.478 234.13 135.293 234.15 135.133 234.15ZM142.772 234.12C142.462 234.12 142.217 234.035 142.037 233.865C141.867 233.685 141.782 233.43 141.782 233.1V224.445C141.782 224.115 141.867 223.865 142.037 223.695C142.217 223.515 142.472 223.425 142.802 223.425H148.037C148.297 223.425 148.492 223.49 148.622 223.62C148.752 223.75 148.817 223.935 148.817 224.175C148.817 224.425 148.752 224.62 148.622 224.76C148.492 224.89 148.297 224.955 148.037 224.955H143.702V227.94H147.722C147.972 227.94 148.162 228.005 148.292 228.135C148.432 228.265 148.502 228.45 148.502 228.69C148.502 228.94 148.432 229.135 148.292 229.275C148.162 229.405 147.972 229.47 147.722 229.47H143.702V233.1C143.702 233.78 143.392 234.12 142.772 234.12ZM153.106 234.15C152.346 234.15 151.686 233.995 151.126 233.685C150.566 233.375 150.131 232.935 149.821 232.365C149.511 231.785 149.356 231.105 149.356 230.325C149.356 229.735 149.441 229.21 149.611 228.75C149.791 228.28 150.046 227.88 150.376 227.55C150.706 227.21 151.101 226.955 151.561 226.785C152.021 226.605 152.536 226.515 153.106 226.515C153.866 226.515 154.526 226.67 155.086 226.98C155.646 227.29 156.081 227.73 156.391 228.3C156.701 228.87 156.856 229.545 156.856 230.325C156.856 230.915 156.766 231.445 156.586 231.915C156.416 232.385 156.166 232.79 155.836 233.13C155.506 233.46 155.111 233.715 154.651 233.895C154.191 234.065 153.676 234.15 153.106 234.15ZM153.106 232.725C153.476 232.725 153.801 232.635 154.081 232.455C154.361 232.275 154.576 232.01 154.726 231.66C154.886 231.3 154.966 230.855 154.966 230.325C154.966 229.525 154.796 228.93 154.456 228.54C154.116 228.14 153.666 227.94 153.106 227.94C152.736 227.94 152.411 228.03 152.131 228.21C151.851 228.38 151.631 228.645 151.471 229.005C151.321 229.355 151.246 229.795 151.246 230.325C151.246 231.115 151.416 231.715 151.756 232.125C152.096 232.525 152.546 232.725 153.106 232.725ZM161.059 234.15C160.449 234.15 159.944 234.04 159.544 233.82C159.144 233.59 158.844 233.25 158.644 232.8C158.454 232.35 158.359 231.79 158.359 231.12V227.49C158.359 227.17 158.439 226.935 158.599 226.785C158.759 226.625 158.989 226.545 159.289 226.545C159.589 226.545 159.819 226.625 159.979 226.785C160.149 226.935 160.234 227.17 160.234 227.49V231.15C160.234 231.67 160.339 232.055 160.549 232.305C160.759 232.555 161.094 232.68 161.554 232.68C162.054 232.68 162.464 232.51 162.784 232.17C163.104 231.82 163.264 231.36 163.264 230.79V227.49C163.264 227.17 163.344 226.935 163.504 226.785C163.664 226.625 163.894 226.545 164.194 226.545C164.494 226.545 164.724 226.625 164.884 226.785C165.054 226.935 165.139 227.17 165.139 227.49V233.16C165.139 233.8 164.834 234.12 164.224 234.12C163.934 234.12 163.709 234.04 163.549 233.88C163.389 233.71 163.309 233.47 163.309 233.16V232.02L163.519 232.47C163.309 233.01 162.989 233.425 162.559 233.715C162.139 234.005 161.639 234.15 161.059 234.15ZM168.02 234.12C167.72 234.12 167.49 234.04 167.33 233.88C167.17 233.71 167.09 233.47 167.09 233.16V227.49C167.09 227.18 167.17 226.945 167.33 226.785C167.49 226.625 167.715 226.545 168.005 226.545C168.295 226.545 168.52 226.625 168.68 226.785C168.84 226.945 168.92 227.18 168.92 227.49V228.51L168.755 228.135C168.975 227.605 169.315 227.205 169.775 226.935C170.245 226.655 170.775 226.515 171.365 226.515C171.955 226.515 172.44 226.625 172.82 226.845C173.2 227.065 173.485 227.4 173.675 227.85C173.865 228.29 173.96 228.85 173.96 229.53V233.16C173.96 233.47 173.88 233.71 173.72 233.88C173.56 234.04 173.33 234.12 173.03 234.12C172.73 234.12 172.495 234.04 172.325 233.88C172.165 233.71 172.085 233.47 172.085 233.16V229.62C172.085 229.05 171.975 228.635 171.755 228.375C171.545 228.115 171.215 227.985 170.765 227.985C170.215 227.985 169.775 228.16 169.445 228.51C169.125 228.85 168.965 229.305 168.965 229.875V233.16C168.965 233.8 168.65 234.12 168.02 234.12ZM178.685 234.15C178.045 234.15 177.48 233.995 176.99 233.685C176.51 233.375 176.135 232.935 175.865 232.365C175.595 231.785 175.46 231.105 175.46 230.325C175.46 229.535 175.595 228.86 175.865 228.3C176.135 227.73 176.51 227.29 176.99 226.98C177.48 226.67 178.045 226.515 178.685 226.515C179.295 226.515 179.825 226.665 180.275 226.965C180.735 227.265 181.045 227.66 181.205 228.15H181.04V224.25C181.04 223.94 181.12 223.705 181.28 223.545C181.44 223.385 181.67 223.305 181.97 223.305C182.27 223.305 182.5 223.385 182.66 223.545C182.83 223.705 182.915 223.94 182.915 224.25V233.16C182.915 233.47 182.835 233.71 182.675 233.88C182.515 234.04 182.285 234.12 181.985 234.12C181.685 234.12 181.455 234.04 181.295 233.88C181.135 233.71 181.055 233.47 181.055 233.16V231.99L181.22 232.44C181.07 232.96 180.765 233.375 180.305 233.685C179.845 233.995 179.305 234.15 178.685 234.15ZM179.21 232.725C179.58 232.725 179.905 232.635 180.185 232.455C180.465 232.275 180.68 232.01 180.83 231.66C180.99 231.3 181.07 230.855 181.07 230.325C181.07 229.525 180.9 228.93 180.56 228.54C180.22 228.14 179.77 227.94 179.21 227.94C178.84 227.94 178.515 228.03 178.235 228.21C177.955 228.38 177.735 228.645 177.575 229.005C177.425 229.355 177.35 229.795 177.35 230.325C177.35 231.115 177.52 231.715 177.86 232.125C178.2 232.525 178.65 232.725 179.21 232.725Z" fill="#A1A8B0"/>
</svg>
