<svg width="500" height="399" viewBox="0 0 500 399" fill="none" xmlns="http://www.w3.org/2000/svg">
<path d="M439 327.4H55V327.65H439V327.4Z" fill="#EBEBEB"/>
<path d="M188.033 333.78H170.231V334.03H188.033V333.78Z" fill="#EBEBEB"/>
<path d="M407.335 339.14H363.813V339.39H407.335V339.14Z" fill="#EBEBEB"/>
<path d="M131.331 339.14H87.8089V339.39H131.331V339.14Z" fill="#EBEBEB"/>
<path d="M237.016 282.8H88.7228C86.3036 282.795 84.3452 280.24 84.3452 277.09V5.66C84.366 2.53 86.319 0.005 88.7228 0H237.016C239.437 0 241.401 2.556 241.401 5.71V277.09C241.401 280.243 239.437 282.8 237.016 282.8ZM88.7228 0.200001C86.4096 0.206001 84.5372 2.648 84.5372 5.66V277.09C84.5372 280.102 86.4096 282.544 88.7228 282.55H237.016C239.33 282.545 241.205 280.103 241.209 277.09V5.66C241.205 2.647 239.33 0.206001 237.016 0.200001H88.7228Z" fill="#EBEBEB"/>
<path d="M403.142 282.8H254.841C252.421 282.795 250.461 280.241 250.456 277.09V5.66C250.481 2.528 252.436 0.005 254.841 0H403.142C405.543 0.011 407.491 2.534 407.512 5.66V277.09C407.512 280.236 405.558 282.789 403.142 282.8ZM254.841 0.200001C252.527 0.206001 250.653 2.647 250.648 5.66V277.09C250.652 280.103 252.527 282.544 254.841 282.55H403.142C405.456 282.545 407.331 280.103 407.335 277.09V5.66C407.332 2.647 405.456 0.206001 403.142 0.200001H254.841Z" fill="#EBEBEB"/>
<path d="M179 264.457H40.2947V374.007H179V264.457Z" fill="#E0E0E0"/>
<path d="M154.384 264.457H27V374.007H154.384V264.457Z" fill="#EBEBEB"/>
<path d="M149.098 270.386H32.1339V300.298H149.098V270.386Z" fill="#F5F5F5"/>
<path d="M149.098 305.004H32.1339V334.917H149.098V305.004Z" fill="#F5F5F5"/>
<path d="M149.098 338.165H32.1339V368.078H149.098V338.165Z" fill="#F5F5F5"/>
<path d="M91.854 283.684C91.854 285.489 90.0015 286.951 87.7174 286.951C85.4323 286.951 83.5808 285.488 83.5808 283.684C83.5808 281.88 85.4333 280.417 87.7174 280.417C90.0015 280.416 91.854 281.879 91.854 283.684Z" fill="#FAFAFA"/>
<path d="M90.6922 350.1C90.6922 351.398 89.36 352.449 87.7173 352.449C86.0747 352.449 84.7425 351.397 84.7425 350.1C84.7425 348.801 86.0747 347.75 87.7173 347.75C89.36 347.75 90.6922 348.801 90.6922 350.1Z" fill="#FAFAFA"/>
<path d="M90.6922 319.515C90.6922 320.813 89.36 321.864 87.7173 321.864C86.0747 321.864 84.7425 320.812 84.7425 319.515C84.7425 318.216 86.0747 317.165 87.7173 317.165C89.36 317.165 90.6922 318.217 90.6922 319.515Z" fill="#FAFAFA"/>
<path d="M216.104 18.0771H47.3331V104.057H216.104V18.0771Z" fill="#E0E0E0"/>
<path d="M212.851 18.0771H44.0807V104.057H212.851V18.0771Z" fill="#F0F0F0"/>
<path d="M206.638 22.1714H48.9283V100.638H206.638V22.1714Z" fill="#FAFAFA"/>
<path d="M201.31 23.2871L156.451 100.638H138.012L181.162 23.2871H201.31Z" fill="white"/>
<path d="M164.55 23.2871L118.986 100.638H97.3691L145.013 23.2871H164.55Z" fill="white"/>
<path d="M215.882 18.0771H44.0807V23.2878H215.882V18.0771Z" fill="#E0E0E0"/>
<path d="M215.882 24.6357H44.0807V29.8464H215.882V24.6357Z" fill="#E0E0E0"/>
<path d="M215.882 31.1943H44.0807V36.405H215.882V31.1943Z" fill="#E0E0E0"/>
<path d="M215.882 37.7529H44.0807V42.9636H215.882V37.7529Z" fill="#E0E0E0"/>
<path d="M215.882 44.312H44.0807V49.5226H215.882V44.312Z" fill="#E0E0E0"/>
<path d="M221 104.057H40.3993V110.549H221V104.057Z" fill="#E0E0E0"/>
<path d="M472.166 236V365.999H432.662L430.556 352.982H277.052V236H472.166Z" fill="#E0E0E0"/>
<path d="M445.114 236V365.999H432.662L430.556 352.982H274.001L271.524 365.999H250V236H445.114Z" fill="#EBEBEB"/>
<path d="M434.105 245.117H259.91V289.907H434.105V245.117Z" stroke="#FAFAFA" stroke-miterlimit="10"/>
<path d="M434.105 298.822H259.91V344.064H434.105V298.822Z" stroke="#FAFAFA" stroke-miterlimit="10"/>
<path d="M469.303 19.438H405.295V106.01H469.303V19.438Z" fill="#E0E0E0"/>
<path d="M466.097 19.3838H402.089V105.956H466.097V19.3838Z" fill="#E6E6E6"/>
<path d="M462.777 22.623H405.295V102.826H462.777V22.623Z" fill="#FAFAFA"/>
<path d="M456.917 85.4233H412.981V87.2969H456.917V85.4233Z" fill="#E0E0E0"/>
<path d="M456.917 90.2139H412.981V92.0875H456.917V90.2139Z" fill="#E0E0E0"/>
<path d="M456.917 95.0029H412.981V96.8765H456.917V95.0029Z" fill="#E0E0E0"/>
<path d="M450.632 52.2974C450.632 60.959 443.61 67.9815 434.948 67.9815C426.287 67.9815 419.264 60.959 419.264 52.2974C419.264 43.6357 426.287 36.6133 434.948 36.6133C443.611 36.6133 450.632 43.6346 450.632 52.2974Z" stroke="#E0E0E0" stroke-miterlimit="10"/>
<path d="M444.248 128.361H389.591V183.019H444.248V128.361Z" fill="#E0E0E0"/>
<path d="M439.572 128.361H384.915V183.019H439.572V128.361Z" fill="#EBEBEB"/>
<path d="M435.794 132.139H388.693V179.24H435.794V132.139Z" fill="#FAFAFA"/>
<path d="M424.736 143.197H399.751V168.182H424.736V143.197Z" fill="#E0E0E0"/>
<path d="M248.081 398.708C340.402 398.708 415.242 393.05 415.242 386.07C415.242 379.09 340.402 373.432 248.081 373.432C155.761 373.432 80.92 379.09 80.92 386.07C80.92 393.05 155.761 398.708 248.081 398.708Z" fill="#F5F5F5"/>
<path d="M246.497 319.208H184.982V388.641H246.497V319.208Z" fill="#4CB8B8"/>
<path d="M277.255 319.208H215.74V388.641H277.255V319.208Z" fill="#4CB8B8"/>
<path opacity="0.7" d="M246.497 319.208H184.982V388.641H246.497V319.208Z" fill="white"/>
<path opacity="0.2" d="M277.255 319.208H246.434V388.641H277.255V319.208Z" fill="white"/>
<path d="M261.155 367.795C265.477 367.694 268.84 361.56 268.666 354.095C268.492 346.629 264.847 340.658 260.525 340.759C256.202 340.86 252.839 346.994 253.013 354.459C253.187 361.925 256.832 367.896 261.155 367.795Z" fill="white"/>
<path d="M265.605 351.994L262.264 352.072L262.132 346.406L259.55 346.466L259.683 352.132L256.007 352.218L256.11 356.625L259.785 356.539L259.916 362.152L262.498 362.092L262.367 356.479L265.708 356.401L265.605 351.994Z" fill="#E02D3C"/>
<path d="M223.231 319.208H210.766V331.673H223.231V319.208Z" fill="#F5F5F5"/>
<path d="M223.231 344.098H210.766V388.642H223.231V344.098Z" fill="#F5F5F5"/>
<path d="M266.212 262.26H215.74V319.228H266.212V262.26Z" fill="#4CB8B8"/>
<path d="M291.448 262.26H240.976V319.228H291.448V262.26Z" fill="#4CB8B8"/>
<path opacity="0.7" d="M258.337 262.26H215.74V319.228H258.337V262.26Z" fill="white"/>
<path opacity="0.2" d="M291.448 262.26H258.337V319.228H291.448V262.26Z" fill="white"/>
<path d="M281.314 290.888C281.457 297.014 278.698 302.047 275.151 302.129C271.605 302.212 268.614 297.313 268.471 291.187C268.328 285.061 271.087 280.028 274.634 279.946C278.18 279.864 281.171 284.763 281.314 290.888Z" fill="white"/>
<path d="M278.788 289.16L276.047 289.224L275.938 284.575L273.82 284.625L273.929 289.273L270.913 289.344L270.998 292.959L274.013 292.889L274.121 297.495L276.239 297.445L276.132 292.84L278.873 292.776L278.788 289.16Z" fill="#E02D3C"/>
<path d="M236.895 262.26H226.668V319.228H236.895V262.26Z" fill="#F5F5F5"/>
<path d="M324.389 185.103C324.389 185.103 309.658 254.856 308.373 278.003C307.089 301.15 313.14 359.293 313.14 359.293L331.96 362.263L335.552 288.044L343.802 231.481C343.802 231.481 352.442 277.513 356.161 288.252C359.88 298.991 377.625 330.217 392.293 355.204L404.908 346.028C404.908 346.028 381.357 278.693 377.342 265.538C373.327 252.384 376.034 196.637 363.643 180.807L324.389 185.103Z" fill="#4CB8B8"/>
<path opacity="0.4" d="M324.389 185.103C324.389 185.103 309.658 254.856 308.373 278.003C307.089 301.15 313.14 359.293 313.14 359.293L331.96 362.263L335.552 288.044L343.802 231.481C343.802 231.481 352.442 277.513 356.161 288.252C359.88 298.991 377.625 330.217 392.293 355.204L404.908 346.028C404.908 346.028 381.357 278.693 377.342 265.538C373.327 252.384 376.034 196.637 363.643 180.807L324.389 185.103Z" fill="white"/>
<path d="M327.891 378.597C327.801 379.158 318.036 377.041 318.036 377.041L317.375 367.403L317.122 363.62L327.076 362.742C327.076 362.742 327.248 365.62 327.429 368.923C327.674 373.24 327.946 378.271 327.891 378.597Z" fill="#FFCC92"/>
<path opacity="0.2" d="M327.43 368.923L317.376 367.403L317.123 363.62L327.077 362.742C327.077 362.742 327.249 365.621 327.43 368.923Z" fill="black"/>
<path d="M310.889 380.429L310.491 379.88C310.367 379.709 307.459 375.677 307.913 373.696C308.008 373.285 308.234 372.981 308.587 372.792C309.011 372.566 309.336 372.662 309.534 372.783C310.959 373.652 310.91 379.13 310.9 379.751L310.889 380.429ZM309.089 373.108C309.012 373.108 308.918 373.129 308.802 373.192C308.566 373.318 308.42 373.516 308.355 373.798C308.042 375.164 309.662 377.829 310.448 379.018C310.422 377.095 310.191 373.714 309.299 373.17C309.249 373.138 309.182 373.108 309.089 373.108Z" fill="#4CB8B8"/>
<path d="M309.882 380.486L309.297 380.247C308.678 379.995 303.24 377.728 302.902 375.782C302.833 375.384 302.975 375.014 303.312 374.711C303.666 374.396 304.082 374.274 304.546 374.357C306.749 374.739 309.466 379.719 309.58 379.93L309.882 380.486ZM304.274 374.785C304.029 374.785 303.813 374.873 303.616 375.049C303.391 375.25 303.306 375.459 303.349 375.706C303.572 376.987 306.969 378.734 308.852 379.566C308.067 378.239 306.045 375.076 304.471 374.803C304.403 374.791 304.337 374.785 304.274 374.785Z" fill="#4CB8B8"/>
<path d="M327.567 378.064L317.473 376.471C316.844 376.372 316.208 376.509 315.674 376.856C314.25 377.785 311.109 379.62 307.921 380.076C303.604 380.693 299.761 379.843 299.403 381.085C299.045 382.327 299.457 384.34 301.258 385.273C302.675 386.008 320.076 388.712 327.417 389.83C329.064 390.081 330.501 388.716 330.346 387.057L329.719 380.356C329.609 379.19 328.724 378.246 327.567 378.064Z" fill="#222221"/>
<path d="M310.674 356.977L312.245 365.304L332.855 367.259L333.462 358.843L310.674 356.977Z" fill="#4CB8B8"/>
<path d="M411.244 356.444C411.525 356.942 402.557 361.349 402.557 361.349L396.621 354.824L393.508 351.394L396.675 348.399L400.765 344.526C400.765 344.526 401.19 345.006 401.878 345.766C402.774 346.78 404.122 348.3 405.525 349.874C408.222 352.924 411.099 356.19 411.244 356.444Z" fill="#FFCC92"/>
<path opacity="0.2" d="M405.525 349.874L396.62 354.824L393.507 351.394L396.674 348.399L401.877 345.766C402.774 346.779 404.122 348.299 405.525 349.874Z" fill="black"/>
<path d="M399.653 365.342L399.126 365.103C398.94 365.019 394.545 363.012 394.164 361.244C394.083 360.867 394.175 360.523 394.438 360.224C394.77 359.846 395.16 359.689 395.589 359.759C397.37 360.048 399.223 364.323 399.429 364.809L399.653 365.342ZM395.398 360.196C395.174 360.196 394.97 360.304 394.778 360.523C394.61 360.714 394.556 360.913 394.607 361.149C394.848 362.27 397.328 363.714 398.763 364.429C398.071 362.951 396.654 360.391 395.517 360.207C395.477 360.2 395.437 360.196 395.398 360.196Z" fill="#4CB8B8"/>
<path d="M393.068 367.441C391.96 367.441 391.016 367.268 390.52 366.788C390.144 366.425 390.032 365.927 390.19 365.311C390.359 364.653 390.752 364.182 391.359 363.909C393.97 362.733 399.802 365.699 400.049 365.826L400.553 366.085L400.01 366.245C399.783 366.312 395.893 367.441 393.068 367.441ZM392.877 364.083C392.373 364.083 391.919 364.154 391.545 364.323C391.063 364.539 390.763 364.9 390.628 365.425C390.511 365.877 390.579 366.218 390.834 366.463C392.032 367.621 396.916 366.615 399.309 365.972C398.091 365.401 395.042 364.083 392.877 364.083Z" fill="#4CB8B8"/>
<path d="M410.661 356.082L401.758 361.098C401.203 361.411 400.789 361.913 400.587 362.517C400.047 364.129 398.724 367.518 396.507 369.854C393.505 373.018 389.965 374.736 390.455 375.932C390.945 377.128 392.518 378.45 394.509 378.064C396.076 377.76 411.397 369.08 417.847 365.399C419.294 364.573 419.574 362.612 418.422 361.407L413.771 356.542C412.961 355.697 411.681 355.507 410.661 356.082Z" fill="#222221"/>
<path d="M384.905 350.933L391.305 356.486L408.677 345.225L403.929 338.251L384.905 350.933Z" fill="#4CB8B8"/>
<path d="M345.276 98.0274C345.83 97.7204 357.32 97.1994 368.271 99.5154C379.222 101.83 359.674 115.348 359.674 115.348L353.528 139.931L342.278 140.035L340.924 105.126L345.276 98.0274Z" fill="#EBEBEB"/>
<path d="M368.271 99.5142L344.412 137.159L347.055 97.6802C347.055 97.6802 338.383 97.8962 335.695 98.6942C333.007 99.4932 330.66 105.751 328.761 114.354C326.862 122.957 323.899 143.565 323.899 143.565L310.187 258.524C310.187 258.524 357.063 268.559 379.14 260.754C379.14 260.754 370.836 157.465 372.212 151.086C373.588 144.707 378.01 121.372 378.01 121.372C378.01 121.372 384.147 109.719 381.476 106.286C378.804 102.853 368.271 99.5142 368.271 99.5142Z" fill="#4CB8B8"/>
<path d="M340.135 171.955L343.542 263.214" stroke="white" stroke-width="0.75" stroke-miterlimit="10" stroke-linecap="round" stroke-linejoin="round"/>
<path d="M337.23 100.628L254.512 128.822L275.345 189.946L358.063 161.753L337.23 100.628Z" fill="#4CB8B8"/>
<path d="M337.239 100.638L275.349 189.958L263.729 184.694L242.897 123.567L325.619 95.375L337.239 100.638Z" fill="#4CB8B8"/>
<path opacity="0.7" d="M337.239 100.638L254.516 128.831L275.349 189.958L263.729 184.694L242.897 123.567L325.619 95.375L337.239 100.638Z" fill="white"/>
<path opacity="0.46" d="M337.23 100.628L254.512 128.822L275.345 189.946L358.063 161.753L337.23 100.628Z" fill="white"/>
<path d="M321.139 163.432C331.158 155.228 332.63 140.455 324.426 130.436C316.222 120.416 301.45 118.944 291.43 127.148C281.411 135.352 279.939 150.125 288.143 160.144C296.347 170.164 311.119 171.635 321.139 163.432Z" fill="#FAFAFA"/>
<path d="M318.468 136.758L309.082 140.239L305.665 131.024L298.412 133.714L301.83 142.928L291.506 146.756L294.163 153.924L304.488 150.095L307.873 159.225L315.125 156.535L311.74 147.405L321.125 143.925L318.468 136.758Z" fill="#E02D3C"/>
<path d="M346.968 49.1392V34.5872C346.968 34.5872 362.898 27.4252 378.129 42.0642L371.094 56.1772L346.968 49.1392Z" fill="#4CB8B8"/>
<path d="M362.32 36.6946L360.515 36.3384L359.425 41.8639L361.23 42.2202L362.32 36.6946Z" fill="white"/>
<path d="M358.264 37.8305L357.908 39.6357L363.434 40.7261L363.79 38.9209L358.264 37.8305Z" fill="white"/>
<path d="M370.034 75.9542C367.12 80.1442 364.451 79.5562 364.451 79.5562C363.284 81.8912 361.076 83.7912 361.076 83.7912C360.605 96.8582 364.451 100.387 364.451 100.387C360.488 106.559 355.51 106.341 350.506 104.595C345.502 102.849 345.248 98.8672 345.248 98.8672C349.773 96.6502 349.827 93.1752 349.175 90.7952C348.75 89.2572 348.035 88.1712 348.035 88.1712C339.547 85.8452 337.103 77.7012 337.683 70.0182C338.262 62.3352 341.058 56.5162 341.058 56.5162L346.062 48.9512L365.608 52.9152L366.658 63.2672L362.703 70.9502C369.681 65.8282 372.939 71.7642 370.034 75.9542Z" fill="#FFCC92"/>
<path d="M350.871 74.6897C351.708 74.7789 352.262 74.9386 352.279 74.9434C352.465 74.9984 352.572 75.1949 352.516 75.382C352.46 75.5681 352.266 75.6772 352.077 75.6198C352.03 75.6068 347.17 74.2167 344.673 77.6736C344.561 77.8316 344.341 77.8664 344.181 77.7529C344.024 77.6385 343.988 77.4185 344.103 77.2608C346.004 74.6284 349.083 74.4991 350.871 74.6897Z" fill="#263238"/>
<path d="M345.627 71.3321C345.835 71.2901 346.69 64.9521 346.69 64.9521L342.153 70.4101C342.153 70.4101 343.501 71.7581 345.627 71.3321Z" fill="#CCA375"/>
<path d="M352.661 65.0773C352.55 65.8723 352.061 66.4613 351.57 66.3923C351.078 66.3233 350.769 65.6233 350.88 64.8283C350.991 64.0333 351.48 63.4443 351.971 63.5133C352.463 63.5823 352.772 64.2823 352.661 65.0773Z" fill="#263238"/>
<path d="M343.044 64.1994C342.933 64.9944 342.444 65.5834 341.953 65.5144C341.461 65.4454 341.152 64.7454 341.263 63.9504C341.374 63.1554 341.863 62.5664 342.355 62.6354C342.846 62.7044 343.155 63.4054 343.044 64.1994Z" fill="#263238"/>
<path d="M356.583 61.5042C356.407 61.5042 356.237 61.4042 356.157 61.2332C354.97 58.6972 353.291 59.0292 353.218 59.0432C352.97 59.0972 352.715 58.9402 352.658 58.6892C352.6 58.4382 352.753 58.1882 353.003 58.1272C353.103 58.1042 355.481 57.5712 357.009 60.8342C357.119 61.0692 357.017 61.3492 356.782 61.4592C356.718 61.4902 356.65 61.5042 356.583 61.5042Z" fill="#263238"/>
<path d="M339.933 59.8254C339.816 59.8254 339.7 59.7824 339.608 59.6954C339.421 59.5154 339.413 59.2184 339.593 59.0304C339.705 58.9124 342.387 56.1674 345.773 57.5214C346.015 57.6184 346.131 57.8914 346.035 58.1334C345.938 58.3754 345.662 58.4894 345.424 58.3954C342.612 57.2704 340.296 59.6554 340.272 59.6804C340.181 59.7764 340.057 59.8254 339.933 59.8254Z" fill="#263238"/>
<path opacity="0.2" d="M352.37 87.6914C352.28 87.8454 350.958 89.9714 349.176 90.7954C348.751 89.2574 348.036 88.1714 348.036 88.1714C348.036 88.1714 350.641 88.4334 352.37 87.6914Z" fill="black"/>
<path d="M364.654 53.8784C364.654 53.8784 347.783 58.3874 341.062 56.0024C334.341 53.6174 336.687 45.3514 337.601 44.5714C338.844 43.5104 341.537 47.8894 341.537 47.8894C341.537 47.8894 339.329 43.1984 341.062 42.1684C342.795 41.1384 343.102 48.1184 349.356 47.4314C355.61 46.7454 373.116 41.9394 374.146 52.9234C375.176 63.9074 371.063 72.1834 371.063 72.1834C371.063 72.1834 370.134 66.2024 362.7 70.9474C362.7 70.9474 360.232 69.1924 362.704 66.7674C366.97 62.5844 365.5 57.0704 364.654 53.8784Z" fill="#263238"/>
<path d="M362.859 53.0275C362.859 53.0275 359.934 62.6145 365.315 62.1525C370.696 61.6895 367.396 51.6875 367.396 51.6875L362.859 53.0275Z" fill="#263238"/>
<path d="M348.688 47.9755C348.688 47.9755 345.171 45.3805 346.07 43.4985C346.969 41.6155 348.369 46.1585 355.383 45.3335C362.397 44.5085 370.707 43.8735 372.25 48.5255C373.793 53.1785 358.268 49.6275 358.268 49.6275L348.689 51.6875V47.9755H348.688Z" fill="#263238"/>
<path d="M347.465 162.464L340.703 160.546C340.703 160.546 332.683 160.059 332.033 163.113C331.383 166.167 330.99 171.418 334.21 171.842C337.429 172.267 347.286 171.638 347.286 171.638L347.465 162.464Z" fill="#FFCC92"/>
<path d="M370.575 116.035L381.476 106.287C381.476 106.287 394.993 136.245 395.747 147.822C396.502 159.4 387.603 164.526 380.053 166.468C372.503 168.41 347.476 173.581 347.476 173.581L346.127 159.662C346.127 159.662 372.781 155.115 383.045 150.402C383.045 150.402 373.767 123.55 370.575 116.035Z" fill="#4CB8B8"/>
<path opacity="0.1" d="M347.475 173.581L372.696 168.194L372.773 171.989L347.475 173.581Z" fill="black"/>
<path d="M350.504 104.592L353.368 112.167C353.368 112.167 359.89 107.573 365.894 100.754L361.729 93.834C361.729 93.834 357.922 101.408 350.504 104.592Z" fill="#FAFAFA"/>
<path d="M348.396 96.2988C348.396 96.2988 348.453 100.986 350.504 104.592L347.371 111.557C347.371 111.557 342.453 107.291 343.066 99.2498L348.396 96.2988Z" fill="#FAFAFA"/>
<path d="M88.68 162.36H64.68V171.24C65.6933 170.173 67.08 169.32 68.84 168.68C70.6 168.04 72.5467 167.72 74.68 167.72C78.52 167.72 81.72 168.6 84.28 170.36C86.8933 172.12 88.8133 174.44 90.04 177.32C91.2667 180.2 91.88 183.347 91.88 186.76C91.88 193.053 90.0933 198.013 86.52 201.64C82.9467 205.213 77.9867 207 71.64 207C67.2133 207 63.3733 206.253 60.12 204.76C56.92 203.213 54.4667 201.08 52.76 198.36C51.0533 195.64 50.1733 192.52 50.12 189H65.4C65.56 190.227 66.0933 191.293 67 192.2C67.9067 193.107 69.24 193.56 71 193.56C72.8667 193.56 74.28 192.92 75.24 191.64C76.2 190.36 76.68 188.653 76.68 186.52C76.68 184.44 76.1733 182.867 75.16 181.8C74.1467 180.68 72.68 180.12 70.76 180.12C69.32 180.12 68.1467 180.493 67.24 181.24C66.3867 181.933 65.88 182.813 65.72 183.88H50.44V148.52H88.68V162.36ZM98.5419 176.92C98.5419 167.747 100.409 160.52 104.142 155.24C107.875 149.96 113.742 147.32 121.742 147.32C129.742 147.32 135.609 149.96 139.342 155.24C143.129 160.52 145.022 167.747 145.022 176.92C145.022 186.2 143.155 193.48 139.422 198.76C135.689 204.04 129.795 206.68 121.742 206.68C113.689 206.68 107.795 204.04 104.062 198.76C100.382 193.48 98.5419 186.2 98.5419 176.92ZM129.502 176.92C129.502 172.12 128.995 168.467 127.982 165.96C126.969 163.4 124.889 162.12 121.742 162.12C118.595 162.12 116.515 163.4 115.502 165.96C114.489 168.467 113.982 172.12 113.982 176.92C113.982 181.827 114.462 185.56 115.422 188.12C116.435 190.627 118.542 191.88 121.742 191.88C124.942 191.88 127.022 190.627 127.982 188.12C128.995 185.56 129.502 181.827 129.502 176.92ZM151.12 176.92C151.12 167.747 152.987 160.52 156.72 155.24C160.453 149.96 166.32 147.32 174.32 147.32C182.32 147.32 188.187 149.96 191.92 155.24C195.707 160.52 197.6 167.747 197.6 176.92C197.6 186.2 195.733 193.48 192 198.76C188.267 204.04 182.373 206.68 174.32 206.68C166.267 206.68 160.373 204.04 156.64 198.76C152.96 193.48 151.12 186.2 151.12 176.92ZM182.08 176.92C182.08 172.12 181.573 168.467 180.56 165.96C179.547 163.4 177.467 162.12 174.32 162.12C171.173 162.12 169.093 163.4 168.08 165.96C167.067 168.467 166.56 172.12 166.56 176.92C166.56 181.827 167.04 185.56 168 188.12C169.013 190.627 171.12 191.88 174.32 191.88C177.52 191.88 179.6 190.627 180.56 188.12C181.573 185.56 182.08 181.827 182.08 176.92Z" fill="#038992"/>
<path d="M52.4182 234.12C52.1082 234.12 51.8682 234.035 51.6982 233.865C51.5382 233.685 51.4582 233.44 51.4582 233.13V224.295C51.4582 223.975 51.5382 223.73 51.6982 223.56C51.8682 223.39 52.1082 223.305 52.4182 223.305C52.7282 223.305 52.9632 223.39 53.1232 223.56C53.2932 223.73 53.3782 223.975 53.3782 224.295V233.13C53.3782 233.44 53.2982 233.685 53.1382 233.865C52.9782 234.035 52.7382 234.12 52.4182 234.12ZM56.4416 234.12C56.1416 234.12 55.9116 234.04 55.7516 233.88C55.5916 233.71 55.5116 233.47 55.5116 233.16V227.49C55.5116 227.18 55.5916 226.945 55.7516 226.785C55.9116 226.625 56.1366 226.545 56.4266 226.545C56.7166 226.545 56.9416 226.625 57.1016 226.785C57.2616 226.945 57.3416 227.18 57.3416 227.49V228.51L57.1766 228.135C57.3966 227.605 57.7366 227.205 58.1966 226.935C58.6666 226.655 59.1966 226.515 59.7866 226.515C60.3766 226.515 60.8616 226.625 61.2416 226.845C61.6216 227.065 61.9066 227.4 62.0966 227.85C62.2866 228.29 62.3816 228.85 62.3816 229.53V233.16C62.3816 233.47 62.3016 233.71 62.1416 233.88C61.9816 234.04 61.7516 234.12 61.4516 234.12C61.1516 234.12 60.9166 234.04 60.7466 233.88C60.5866 233.71 60.5066 233.47 60.5066 233.16V229.62C60.5066 229.05 60.3966 228.635 60.1766 228.375C59.9666 228.115 59.6366 227.985 59.1866 227.985C58.6366 227.985 58.1966 228.16 57.8666 228.51C57.5466 228.85 57.3866 229.305 57.3866 229.875V233.16C57.3866 233.8 57.0716 234.12 56.4416 234.12ZM67.646 234.15C66.996 234.15 66.451 234.04 66.011 233.82C65.581 233.6 65.261 233.28 65.051 232.86C64.841 232.43 64.736 231.9 64.736 231.27V228.075H63.956C63.716 228.075 63.531 228.015 63.401 227.895C63.271 227.765 63.206 227.59 63.206 227.37C63.206 227.14 63.271 226.965 63.401 226.845C63.531 226.725 63.716 226.665 63.956 226.665H64.736V225.3C64.736 224.99 64.816 224.755 64.976 224.595C65.146 224.435 65.381 224.355 65.681 224.355C65.981 224.355 66.211 224.435 66.371 224.595C66.531 224.755 66.611 224.99 66.611 225.3V226.665H68.201C68.441 226.665 68.626 226.725 68.756 226.845C68.886 226.965 68.951 227.14 68.951 227.37C68.951 227.59 68.886 227.765 68.756 227.895C68.626 228.015 68.441 228.075 68.201 228.075H66.611V231.165C66.611 231.645 66.716 232.005 66.926 232.245C67.136 232.485 67.476 232.605 67.946 232.605C68.116 232.605 68.266 232.59 68.396 232.56C68.526 232.53 68.641 232.51 68.741 232.5C68.861 232.49 68.961 232.53 69.041 232.62C69.121 232.7 69.161 232.87 69.161 233.13C69.161 233.33 69.126 233.51 69.056 233.67C68.996 233.82 68.881 233.925 68.711 233.985C68.581 234.025 68.411 234.06 68.201 234.09C67.991 234.13 67.806 234.15 67.646 234.15ZM73.5846 234.15C72.7546 234.15 72.0396 233.995 71.4396 233.685C70.8396 233.375 70.3746 232.935 70.0446 232.365C69.7246 231.795 69.5646 231.12 69.5646 230.34C69.5646 229.58 69.7196 228.915 70.0296 228.345C70.3496 227.775 70.7846 227.33 71.3346 227.01C71.8946 226.68 72.5296 226.515 73.2396 226.515C73.7596 226.515 74.2246 226.6 74.6346 226.77C75.0546 226.94 75.4096 227.185 75.6996 227.505C75.9996 227.825 76.2246 228.215 76.3746 228.675C76.5346 229.125 76.6146 229.635 76.6146 230.205C76.6146 230.385 76.5496 230.525 76.4196 230.625C76.2996 230.715 76.1246 230.76 75.8946 230.76H71.0796V229.68H75.2946L75.0546 229.905C75.0546 229.445 74.9846 229.06 74.8446 228.75C74.7146 228.44 74.5196 228.205 74.2596 228.045C74.0096 227.875 73.6946 227.79 73.3146 227.79C72.8946 227.79 72.5346 227.89 72.2346 228.09C71.9446 228.28 71.7196 228.555 71.5596 228.915C71.4096 229.265 71.3346 229.685 71.3346 230.175V230.28C71.3346 231.1 71.5246 231.715 71.9046 232.125C72.2946 232.525 72.8646 232.725 73.6146 232.725C73.8746 232.725 74.1646 232.695 74.4846 232.635C74.8146 232.565 75.1246 232.45 75.4146 232.29C75.6246 232.17 75.8096 232.12 75.9696 232.14C76.1296 232.15 76.2546 232.205 76.3446 232.305C76.4446 232.405 76.5046 232.53 76.5246 232.68C76.5446 232.82 76.5146 232.965 76.4346 233.115C76.3646 233.265 76.2396 233.395 76.0596 233.505C75.7096 233.725 75.3046 233.89 74.8446 234C74.3946 234.1 73.9746 234.15 73.5846 234.15ZM79.0595 234.12C78.7495 234.12 78.5095 234.04 78.3395 233.88C78.1795 233.71 78.0995 233.47 78.0995 233.16V227.49C78.0995 227.18 78.1795 226.945 78.3395 226.785C78.4995 226.625 78.7245 226.545 79.0145 226.545C79.3045 226.545 79.5295 226.625 79.6895 226.785C79.8495 226.945 79.9295 227.18 79.9295 227.49V228.435H79.7795C79.9195 227.835 80.1945 227.38 80.6045 227.07C81.0145 226.76 81.5595 226.575 82.2395 226.515C82.4495 226.495 82.6145 226.55 82.7345 226.68C82.8645 226.8 82.9395 226.99 82.9595 227.25C82.9795 227.5 82.9195 227.705 82.7795 227.865C82.6495 228.015 82.4495 228.105 82.1795 228.135L81.8495 228.165C81.2395 228.225 80.7795 228.415 80.4695 228.735C80.1595 229.045 80.0045 229.485 80.0045 230.055V233.16C80.0045 233.47 79.9245 233.71 79.7645 233.88C79.6045 234.04 79.3695 234.12 79.0595 234.12ZM84.9035 234.12C84.6035 234.12 84.3735 234.04 84.2135 233.88C84.0535 233.71 83.9735 233.47 83.9735 233.16V227.49C83.9735 227.18 84.0535 226.945 84.2135 226.785C84.3735 226.625 84.5985 226.545 84.8885 226.545C85.1785 226.545 85.4035 226.625 85.5635 226.785C85.7235 226.945 85.8035 227.18 85.8035 227.49V228.51L85.6385 228.135C85.8585 227.605 86.1985 227.205 86.6585 226.935C87.1285 226.655 87.6585 226.515 88.2485 226.515C88.8385 226.515 89.3235 226.625 89.7035 226.845C90.0835 227.065 90.3685 227.4 90.5585 227.85C90.7485 228.29 90.8435 228.85 90.8435 229.53V233.16C90.8435 233.47 90.7635 233.71 90.6035 233.88C90.4435 234.04 90.2135 234.12 89.9135 234.12C89.6135 234.12 89.3785 234.04 89.2085 233.88C89.0485 233.71 88.9685 233.47 88.9685 233.16V229.62C88.9685 229.05 88.8585 228.635 88.6385 228.375C88.4285 228.115 88.0985 227.985 87.6485 227.985C87.0985 227.985 86.6585 228.16 86.3285 228.51C86.0085 228.85 85.8485 229.305 85.8485 229.875V233.16C85.8485 233.8 85.5335 234.12 84.9035 234.12ZM95.1629 234.15C94.6329 234.15 94.1579 234.05 93.7379 233.85C93.3279 233.64 93.0029 233.36 92.7629 233.01C92.5329 232.66 92.4179 232.265 92.4179 231.825C92.4179 231.285 92.5579 230.86 92.8379 230.55C93.1179 230.23 93.5729 230 94.2029 229.86C94.8329 229.72 95.6779 229.65 96.7379 229.65H97.4879V230.73H96.7529C96.1329 230.73 95.6379 230.76 95.2679 230.82C94.8979 230.88 94.6329 230.985 94.4729 231.135C94.3229 231.275 94.2479 231.475 94.2479 231.735C94.2479 232.065 94.3629 232.335 94.5929 232.545C94.8229 232.755 95.1429 232.86 95.5529 232.86C95.8829 232.86 96.1729 232.785 96.4229 232.635C96.6829 232.475 96.8879 232.26 97.0379 231.99C97.1879 231.72 97.2629 231.41 97.2629 231.06V229.335C97.2629 228.835 97.1529 228.475 96.9329 228.255C96.7129 228.035 96.3429 227.925 95.8229 227.925C95.5329 227.925 95.2179 227.96 94.8779 228.03C94.5479 228.1 94.1979 228.22 93.8279 228.39C93.6379 228.48 93.4679 228.505 93.3179 228.465C93.1779 228.425 93.0679 228.345 92.9879 228.225C92.9079 228.095 92.8679 227.955 92.8679 227.805C92.8679 227.655 92.9079 227.51 92.9879 227.37C93.0679 227.22 93.2029 227.11 93.3929 227.04C93.8529 226.85 94.2929 226.715 94.7129 226.635C95.1429 226.555 95.5329 226.515 95.8829 226.515C96.6029 226.515 97.1929 226.625 97.6529 226.845C98.1229 227.065 98.4729 227.4 98.7029 227.85C98.9329 228.29 99.0479 228.86 99.0479 229.56V233.16C99.0479 233.47 98.9729 233.71 98.8229 233.88C98.6729 234.04 98.4579 234.12 98.1779 234.12C97.8979 234.12 97.6779 234.04 97.5179 233.88C97.3679 233.71 97.2929 233.47 97.2929 233.16V232.44H97.4129C97.3429 232.79 97.2029 233.095 96.9929 233.355C96.7929 233.605 96.5379 233.8 96.2279 233.94C95.9179 234.08 95.5629 234.15 95.1629 234.15ZM103.456 234.15C102.626 234.15 102.001 233.915 101.581 233.445C101.161 232.965 100.951 232.265 100.951 231.345V224.25C100.951 223.94 101.031 223.705 101.191 223.545C101.351 223.385 101.581 223.305 101.881 223.305C102.181 223.305 102.411 223.385 102.571 223.545C102.741 223.705 102.826 223.94 102.826 224.25V231.255C102.826 231.715 102.921 232.055 103.111 232.275C103.311 232.495 103.591 232.605 103.951 232.605C104.031 232.605 104.106 232.605 104.176 232.605C104.246 232.595 104.316 232.585 104.386 232.575C104.526 232.555 104.621 232.595 104.671 232.695C104.721 232.785 104.746 232.975 104.746 233.265C104.746 233.515 104.696 233.71 104.596 233.85C104.496 233.99 104.331 234.075 104.101 234.105C104.001 234.115 103.896 234.125 103.786 234.135C103.676 234.145 103.566 234.15 103.456 234.15ZM113.638 234.15C113.198 234.15 112.758 234.115 112.318 234.045C111.878 233.985 111.463 233.89 111.073 233.76C110.683 233.62 110.333 233.45 110.023 233.25C109.843 233.13 109.718 232.985 109.648 232.815C109.578 232.645 109.553 232.48 109.573 232.32C109.603 232.15 109.668 232.005 109.768 231.885C109.878 231.755 110.013 231.675 110.173 231.645C110.333 231.615 110.508 231.66 110.698 231.78C111.138 232.04 111.603 232.23 112.093 232.35C112.583 232.47 113.098 232.53 113.638 232.53C114.428 232.53 115.003 232.4 115.363 232.14C115.723 231.87 115.903 231.525 115.903 231.105C115.903 230.755 115.773 230.48 115.513 230.28C115.263 230.08 114.828 229.915 114.208 229.785L112.558 229.44C111.608 229.24 110.898 228.905 110.428 228.435C109.968 227.955 109.738 227.325 109.738 226.545C109.738 226.055 109.838 225.61 110.038 225.21C110.238 224.81 110.518 224.465 110.878 224.175C111.248 223.885 111.683 223.665 112.183 223.515C112.693 223.355 113.253 223.275 113.863 223.275C114.463 223.275 115.033 223.35 115.573 223.5C116.113 223.65 116.598 223.87 117.028 224.16C117.188 224.27 117.293 224.405 117.343 224.565C117.403 224.725 117.418 224.885 117.388 225.045C117.358 225.195 117.288 225.325 117.178 225.435C117.068 225.545 116.928 225.61 116.758 225.63C116.598 225.65 116.413 225.6 116.203 225.48C115.833 225.27 115.458 225.12 115.078 225.03C114.698 224.94 114.288 224.895 113.848 224.895C113.388 224.895 112.993 224.96 112.663 225.09C112.333 225.22 112.078 225.405 111.898 225.645C111.728 225.875 111.643 226.15 111.643 226.47C111.643 226.83 111.763 227.12 112.003 227.34C112.243 227.55 112.653 227.715 113.233 227.835L114.868 228.18C115.858 228.39 116.593 228.72 117.073 229.17C117.563 229.62 117.808 230.22 117.808 230.97C117.808 231.45 117.708 231.885 117.508 232.275C117.318 232.665 117.038 233 116.668 233.28C116.308 233.56 115.873 233.775 115.363 233.925C114.853 234.075 114.278 234.15 113.638 234.15ZM122.891 234.15C122.061 234.15 121.346 233.995 120.746 233.685C120.146 233.375 119.681 232.935 119.351 232.365C119.031 231.795 118.871 231.12 118.871 230.34C118.871 229.58 119.026 228.915 119.336 228.345C119.656 227.775 120.091 227.33 120.641 227.01C121.201 226.68 121.836 226.515 122.546 226.515C123.066 226.515 123.531 226.6 123.941 226.77C124.361 226.94 124.716 227.185 125.006 227.505C125.306 227.825 125.531 228.215 125.681 228.675C125.841 229.125 125.921 229.635 125.921 230.205C125.921 230.385 125.856 230.525 125.726 230.625C125.606 230.715 125.431 230.76 125.201 230.76H120.386V229.68H124.601L124.361 229.905C124.361 229.445 124.291 229.06 124.151 228.75C124.021 228.44 123.826 228.205 123.566 228.045C123.316 227.875 123.001 227.79 122.621 227.79C122.201 227.79 121.841 227.89 121.541 228.09C121.251 228.28 121.026 228.555 120.866 228.915C120.716 229.265 120.641 229.685 120.641 230.175V230.28C120.641 231.1 120.831 231.715 121.211 232.125C121.601 232.525 122.171 232.725 122.921 232.725C123.181 232.725 123.471 232.695 123.791 232.635C124.121 232.565 124.431 232.45 124.721 232.29C124.931 232.17 125.116 232.12 125.276 232.14C125.436 232.15 125.561 232.205 125.651 232.305C125.751 232.405 125.811 232.53 125.831 232.68C125.851 232.82 125.821 232.965 125.741 233.115C125.671 233.265 125.546 233.395 125.366 233.505C125.016 233.725 124.611 233.89 124.151 234C123.701 234.1 123.281 234.15 122.891 234.15ZM128.366 234.12C128.056 234.12 127.816 234.04 127.646 233.88C127.486 233.71 127.406 233.47 127.406 233.16V227.49C127.406 227.18 127.486 226.945 127.646 226.785C127.806 226.625 128.031 226.545 128.321 226.545C128.611 226.545 128.836 226.625 128.996 226.785C129.156 226.945 129.236 227.18 129.236 227.49V228.435H129.086C129.226 227.835 129.501 227.38 129.911 227.07C130.321 226.76 130.866 226.575 131.546 226.515C131.756 226.495 131.921 226.55 132.041 226.68C132.171 226.8 132.246 226.99 132.266 227.25C132.286 227.5 132.226 227.705 132.086 227.865C131.956 228.015 131.756 228.105 131.486 228.135L131.156 228.165C130.546 228.225 130.086 228.415 129.776 228.735C129.466 229.045 129.311 229.485 129.311 230.055V233.16C129.311 233.47 129.231 233.71 129.071 233.88C128.911 234.04 128.676 234.12 128.366 234.12ZM136.704 234.12C136.454 234.12 136.234 234.055 136.044 233.925C135.864 233.795 135.714 233.595 135.594 233.325L133.209 227.79C133.119 227.57 133.084 227.365 133.104 227.175C133.134 226.985 133.224 226.835 133.374 226.725C133.534 226.605 133.749 226.545 134.019 226.545C134.249 226.545 134.434 226.6 134.574 226.71C134.714 226.81 134.839 227.005 134.949 227.295L136.974 232.35H136.524L138.609 227.28C138.719 227 138.844 226.81 138.984 226.71C139.134 226.6 139.334 226.545 139.584 226.545C139.804 226.545 139.979 226.605 140.109 226.725C140.239 226.835 140.319 226.985 140.349 227.175C140.379 227.355 140.344 227.555 140.244 227.775L137.814 233.325C137.704 233.595 137.554 233.795 137.364 233.925C137.184 234.055 136.964 234.12 136.704 234.12ZM145.113 234.15C144.283 234.15 143.568 233.995 142.968 233.685C142.368 233.375 141.903 232.935 141.573 232.365C141.253 231.795 141.093 231.12 141.093 230.34C141.093 229.58 141.248 228.915 141.558 228.345C141.878 227.775 142.313 227.33 142.863 227.01C143.423 226.68 144.058 226.515 144.768 226.515C145.288 226.515 145.753 226.6 146.163 226.77C146.583 226.94 146.938 227.185 147.228 227.505C147.528 227.825 147.753 228.215 147.903 228.675C148.063 229.125 148.143 229.635 148.143 230.205C148.143 230.385 148.078 230.525 147.948 230.625C147.828 230.715 147.653 230.76 147.423 230.76H142.608V229.68H146.823L146.583 229.905C146.583 229.445 146.513 229.06 146.373 228.75C146.243 228.44 146.048 228.205 145.788 228.045C145.538 227.875 145.223 227.79 144.843 227.79C144.423 227.79 144.063 227.89 143.763 228.09C143.473 228.28 143.248 228.555 143.088 228.915C142.938 229.265 142.863 229.685 142.863 230.175V230.28C142.863 231.1 143.053 231.715 143.433 232.125C143.823 232.525 144.393 232.725 145.143 232.725C145.403 232.725 145.693 232.695 146.013 232.635C146.343 232.565 146.653 232.45 146.943 232.29C147.153 232.17 147.338 232.12 147.498 232.14C147.658 232.15 147.783 232.205 147.873 232.305C147.973 232.405 148.033 232.53 148.053 232.68C148.073 232.82 148.043 232.965 147.963 233.115C147.893 233.265 147.768 233.395 147.588 233.505C147.238 233.725 146.833 233.89 146.373 234C145.923 234.1 145.503 234.15 145.113 234.15ZM150.588 234.12C150.278 234.12 150.038 234.04 149.868 233.88C149.708 233.71 149.628 233.47 149.628 233.16V227.49C149.628 227.18 149.708 226.945 149.868 226.785C150.028 226.625 150.253 226.545 150.543 226.545C150.833 226.545 151.058 226.625 151.218 226.785C151.378 226.945 151.458 227.18 151.458 227.49V228.435H151.308C151.448 227.835 151.723 227.38 152.133 227.07C152.543 226.76 153.088 226.575 153.768 226.515C153.978 226.495 154.143 226.55 154.263 226.68C154.393 226.8 154.468 226.99 154.488 227.25C154.508 227.5 154.448 227.705 154.308 227.865C154.178 228.015 153.978 228.105 153.708 228.135L153.378 228.165C152.768 228.225 152.308 228.415 151.998 228.735C151.688 229.045 151.533 229.485 151.533 230.055V233.16C151.533 233.47 151.453 233.71 151.293 233.88C151.133 234.04 150.898 234.12 150.588 234.12ZM160.774 234C160.444 234 160.189 233.915 160.009 233.745C159.839 233.565 159.754 233.31 159.754 232.98V224.445C159.754 224.115 159.839 223.865 160.009 223.695C160.189 223.515 160.444 223.425 160.774 223.425H166.129C166.379 223.425 166.569 223.49 166.699 223.62C166.839 223.75 166.909 223.935 166.909 224.175C166.909 224.425 166.839 224.62 166.699 224.76C166.569 224.89 166.379 224.955 166.129 224.955H161.599V227.865H165.799C166.059 227.865 166.254 227.93 166.384 228.06C166.514 228.19 166.579 228.38 166.579 228.63C166.579 228.88 166.514 229.07 166.384 229.2C166.254 229.33 166.059 229.395 165.799 229.395H161.599V232.47H166.129C166.379 232.47 166.569 232.535 166.699 232.665C166.839 232.795 166.909 232.985 166.909 233.235C166.909 233.485 166.839 233.675 166.699 233.805C166.569 233.935 166.379 234 166.129 234H160.774ZM169.484 234.12C169.174 234.12 168.934 234.04 168.764 233.88C168.604 233.71 168.524 233.47 168.524 233.16V227.49C168.524 227.18 168.604 226.945 168.764 226.785C168.924 226.625 169.149 226.545 169.439 226.545C169.729 226.545 169.954 226.625 170.114 226.785C170.274 226.945 170.354 227.18 170.354 227.49V228.435H170.204C170.344 227.835 170.619 227.38 171.029 227.07C171.439 226.76 171.984 226.575 172.664 226.515C172.874 226.495 173.039 226.55 173.159 226.68C173.289 226.8 173.364 226.99 173.384 227.25C173.404 227.5 173.344 227.705 173.204 227.865C173.074 228.015 172.874 228.105 172.604 228.135L172.274 228.165C171.664 228.225 171.204 228.415 170.894 228.735C170.584 229.045 170.429 229.485 170.429 230.055V233.16C170.429 233.47 170.349 233.71 170.189 233.88C170.029 234.04 169.794 234.12 169.484 234.12ZM175.358 234.12C175.048 234.12 174.808 234.04 174.638 233.88C174.478 233.71 174.398 233.47 174.398 233.16V227.49C174.398 227.18 174.478 226.945 174.638 226.785C174.798 226.625 175.023 226.545 175.313 226.545C175.603 226.545 175.828 226.625 175.988 226.785C176.148 226.945 176.228 227.18 176.228 227.49V228.435H176.078C176.218 227.835 176.493 227.38 176.903 227.07C177.313 226.76 177.858 226.575 178.538 226.515C178.748 226.495 178.913 226.55 179.033 226.68C179.163 226.8 179.238 226.99 179.258 227.25C179.278 227.5 179.218 227.705 179.078 227.865C178.948 228.015 178.748 228.105 178.478 228.135L178.148 228.165C177.538 228.225 177.078 228.415 176.768 228.735C176.458 229.045 176.303 229.485 176.303 230.055V233.16C176.303 233.47 176.223 233.71 176.063 233.88C175.903 234.04 175.668 234.12 175.358 234.12ZM183.5 234.15C182.74 234.15 182.08 233.995 181.52 233.685C180.96 233.375 180.525 232.935 180.215 232.365C179.905 231.785 179.75 231.105 179.75 230.325C179.75 229.735 179.835 229.21 180.005 228.75C180.185 228.28 180.44 227.88 180.77 227.55C181.1 227.21 181.495 226.955 181.955 226.785C182.415 226.605 182.93 226.515 183.5 226.515C184.26 226.515 184.92 226.67 185.48 226.98C186.04 227.29 186.475 227.73 186.785 228.3C187.095 228.87 187.25 229.545 187.25 230.325C187.25 230.915 187.16 231.445 186.98 231.915C186.81 232.385 186.56 232.79 186.23 233.13C185.9 233.46 185.505 233.715 185.045 233.895C184.585 234.065 184.07 234.15 183.5 234.15ZM183.5 232.725C183.87 232.725 184.195 232.635 184.475 232.455C184.755 232.275 184.97 232.01 185.12 231.66C185.28 231.3 185.36 230.855 185.36 230.325C185.36 229.525 185.19 228.93 184.85 228.54C184.51 228.14 184.06 227.94 183.5 227.94C183.13 227.94 182.805 228.03 182.525 228.21C182.245 228.38 182.025 228.645 181.865 229.005C181.715 229.355 181.64 229.795 181.64 230.325C181.64 231.115 181.81 231.715 182.15 232.125C182.49 232.525 182.94 232.725 183.5 232.725ZM189.758 234.12C189.448 234.12 189.208 234.04 189.038 233.88C188.878 233.71 188.798 233.47 188.798 233.16V227.49C188.798 227.18 188.878 226.945 189.038 226.785C189.198 226.625 189.423 226.545 189.713 226.545C190.003 226.545 190.228 226.625 190.388 226.785C190.548 226.945 190.628 227.18 190.628 227.49V228.435H190.478C190.618 227.835 190.893 227.38 191.303 227.07C191.713 226.76 192.258 226.575 192.938 226.515C193.148 226.495 193.313 226.55 193.433 226.68C193.563 226.8 193.638 226.99 193.658 227.25C193.678 227.5 193.618 227.705 193.478 227.865C193.348 228.015 193.148 228.105 192.878 228.135L192.548 228.165C191.938 228.225 191.478 228.415 191.168 228.735C190.858 229.045 190.703 229.485 190.703 230.055V233.16C190.703 233.47 190.623 233.71 190.463 233.88C190.303 234.04 190.068 234.12 189.758 234.12Z" fill="#A1A8B0"/>
</svg>
