<svg width="500" height="399" viewBox="0 0 500 399" fill="none" xmlns="http://www.w3.org/2000/svg">
<path d="M439 327.4H55V327.65H439V327.4Z" fill="#EBEBEB"/>
<path d="M188.033 333.78H170.231V334.03H188.033V333.78Z" fill="#EBEBEB"/>
<path d="M407.335 339.14H363.813V339.39H407.335V339.14Z" fill="#EBEBEB"/>
<path d="M131.331 339.14H87.8089V339.39H131.331V339.14Z" fill="#EBEBEB"/>
<path d="M237.016 282.8H88.7228C86.3036 282.795 84.3452 280.24 84.3452 277.09V5.66C84.366 2.53 86.319 0.005 88.7228 0H237.016C239.437 0 241.401 2.556 241.401 5.71V277.09C241.401 280.243 239.437 282.8 237.016 282.8ZM88.7228 0.200001C86.4096 0.206001 84.5372 2.648 84.5372 5.66V277.09C84.5372 280.102 86.4096 282.544 88.7228 282.55H237.016C239.33 282.545 241.205 280.103 241.209 277.09V5.66C241.205 2.647 239.33 0.206001 237.016 0.200001H88.7228Z" fill="#EBEBEB"/>
<path d="M403.142 282.8H254.841C252.421 282.795 250.461 280.241 250.456 277.09V5.66C250.481 2.528 252.436 0.005 254.841 0H403.142C405.543 0.011 407.491 2.534 407.512 5.66V277.09C407.512 280.236 405.558 282.789 403.142 282.8ZM254.841 0.200001C252.527 0.206001 250.653 2.647 250.648 5.66V277.09C250.652 280.103 252.527 282.544 254.841 282.55H403.142C405.456 282.545 407.331 280.103 407.335 277.09V5.66C407.332 2.647 405.456 0.206001 403.142 0.200001H254.841Z" fill="#EBEBEB"/>
<path d="M179 264.457H40.2947V374.007H179V264.457Z" fill="#E0E0E0"/>
<path d="M154.384 264.457H27V374.007H154.384V264.457Z" fill="#EBEBEB"/>
<path d="M149.098 270.386H32.1339V300.298H149.098V270.386Z" fill="#F5F5F5"/>
<path d="M149.098 305.004H32.1339V334.917H149.098V305.004Z" fill="#F5F5F5"/>
<path d="M149.098 338.165H32.1339V368.078H149.098V338.165Z" fill="#F5F5F5"/>
<path d="M91.854 283.684C91.854 285.489 90.0015 286.951 87.7174 286.951C85.4323 286.951 83.5808 285.488 83.5808 283.684C83.5808 281.88 85.4333 280.417 87.7174 280.417C90.0015 280.416 91.854 281.879 91.854 283.684Z" fill="#FAFAFA"/>
<path d="M90.6922 350.1C90.6922 351.398 89.36 352.449 87.7174 352.449C86.0748 352.449 84.7426 351.397 84.7426 350.1C84.7426 348.801 86.0748 347.75 87.7174 347.75C89.36 347.75 90.6922 348.801 90.6922 350.1Z" fill="#FAFAFA"/>
<path d="M90.6922 319.515C90.6922 320.813 89.36 321.864 87.7174 321.864C86.0748 321.864 84.7426 320.812 84.7426 319.515C84.7426 318.216 86.0748 317.165 87.7174 317.165C89.36 317.165 90.6922 318.217 90.6922 319.515Z" fill="#FAFAFA"/>
<path d="M216.104 18.0771H47.3331V104.057H216.104V18.0771Z" fill="#E0E0E0"/>
<path d="M212.851 18.0771H44.0807V104.057H212.851V18.0771Z" fill="#F0F0F0"/>
<path d="M206.638 22.1714H48.9283V100.638H206.638V22.1714Z" fill="#FAFAFA"/>
<path d="M201.31 23.2871L156.451 100.638H138.012L181.162 23.2871H201.31Z" fill="white"/>
<path d="M164.55 23.2871L118.986 100.638H97.3691L145.013 23.2871H164.55Z" fill="white"/>
<path d="M215.882 18.0771H44.0807V23.2878H215.882V18.0771Z" fill="#E0E0E0"/>
<path d="M215.882 24.6357H44.0807V29.8464H215.882V24.6357Z" fill="#E0E0E0"/>
<path d="M215.882 31.1943H44.0807V36.405H215.882V31.1943Z" fill="#E0E0E0"/>
<path d="M215.882 37.7529H44.0807V42.9636H215.882V37.7529Z" fill="#E0E0E0"/>
<path d="M215.882 44.312H44.0807V49.5226H215.882V44.312Z" fill="#E0E0E0"/>
<path d="M221 104.057H40.3993V110.549H221V104.057Z" fill="#E0E0E0"/>
<path d="M472.166 236V365.999H432.662L430.556 352.982H277.052V236H472.166Z" fill="#E0E0E0"/>
<path d="M445.114 236V365.999H432.662L430.556 352.982H274.001L271.524 365.999H250V236H445.114Z" fill="#EBEBEB"/>
<path d="M434.105 245.117H259.91V289.907H434.105V245.117Z" stroke="#FAFAFA" stroke-miterlimit="10"/>
<path d="M434.105 298.822H259.91V344.064H434.105V298.822Z" stroke="#FAFAFA" stroke-miterlimit="10"/>
<path d="M469.303 19.438H405.294V106.01H469.303V19.438Z" fill="#E0E0E0"/>
<path d="M466.097 19.3838H402.089V105.956H466.097V19.3838Z" fill="#E6E6E6"/>
<path d="M462.777 22.623H405.294V102.826H462.777V22.623Z" fill="#FAFAFA"/>
<path d="M456.917 85.4233H412.981V87.2969H456.917V85.4233Z" fill="#E0E0E0"/>
<path d="M456.917 90.2139H412.981V92.0875H456.917V90.2139Z" fill="#E0E0E0"/>
<path d="M456.917 95.0029H412.981V96.8765H456.917V95.0029Z" fill="#E0E0E0"/>
<path d="M450.632 52.2974C450.632 60.959 443.61 67.9815 434.948 67.9815C426.287 67.9815 419.264 60.959 419.264 52.2974C419.264 43.6357 426.287 36.6133 434.948 36.6133C443.611 36.6133 450.632 43.6346 450.632 52.2974Z" stroke="#E0E0E0" stroke-miterlimit="10"/>
<path d="M444.248 128.361H389.591V183.019H444.248V128.361Z" fill="#E0E0E0"/>
<path d="M439.572 128.361H384.915V183.019H439.572V128.361Z" fill="#EBEBEB"/>
<path d="M435.794 132.139H388.693V179.24H435.794V132.139Z" fill="#FAFAFA"/>
<path d="M424.736 143.197H399.751V168.182H424.736V143.197Z" fill="#E0E0E0"/>
<path d="M248.081 398.708C340.402 398.708 415.242 393.05 415.242 386.07C415.242 379.09 340.402 373.432 248.081 373.432C155.761 373.432 80.92 379.09 80.92 386.07C80.92 393.05 155.761 398.708 248.081 398.708Z" fill="#F5F5F5"/>
<path d="M246.497 319.208H184.982V388.641H246.497V319.208Z" fill="#4CB8B8"/>
<path d="M277.255 319.208H215.74V388.641H277.255V319.208Z" fill="#4CB8B8"/>
<path opacity="0.7" d="M246.497 319.208H184.982V388.641H246.497V319.208Z" fill="white"/>
<path opacity="0.2" d="M277.255 319.208H246.434V388.641H277.255V319.208Z" fill="white"/>
<path d="M261.155 367.795C265.477 367.694 268.84 361.56 268.666 354.095C268.492 346.629 264.847 340.658 260.525 340.759C256.202 340.86 252.839 346.994 253.013 354.459C253.187 361.925 256.832 367.896 261.155 367.795Z" fill="white"/>
<path d="M265.605 351.994L262.264 352.072L262.132 346.406L259.55 346.466L259.683 352.132L256.007 352.218L256.11 356.625L259.785 356.539L259.916 362.152L262.498 362.092L262.367 356.479L265.708 356.401L265.605 351.994Z" fill="#E02D3C"/>
<path d="M223.231 319.208H210.766V331.673H223.231V319.208Z" fill="#F5F5F5"/>
<path d="M223.231 344.098H210.766V388.642H223.231V344.098Z" fill="#F5F5F5"/>
<path d="M266.212 262.26H215.74V319.228H266.212V262.26Z" fill="#4CB8B8"/>
<path d="M291.448 262.26H240.976V319.228H291.448V262.26Z" fill="#4CB8B8"/>
<path opacity="0.7" d="M258.337 262.26H215.74V319.228H258.337V262.26Z" fill="white"/>
<path opacity="0.2" d="M291.448 262.26H258.337V319.228H291.448V262.26Z" fill="white"/>
<path d="M281.314 290.888C281.457 297.014 278.698 302.047 275.151 302.129C271.605 302.212 268.614 297.313 268.471 291.187C268.328 285.061 271.087 280.028 274.634 279.946C278.18 279.864 281.171 284.763 281.314 290.888Z" fill="white"/>
<path d="M278.788 289.16L276.047 289.224L275.938 284.575L273.82 284.625L273.929 289.273L270.913 289.344L270.998 292.959L274.013 292.889L274.121 297.495L276.239 297.445L276.132 292.84L278.873 292.776L278.788 289.16Z" fill="#E02D3C"/>
<path d="M236.895 262.26H226.668V319.228H236.895V262.26Z" fill="#F5F5F5"/>
<path d="M324.389 185.103C324.389 185.103 309.658 254.856 308.373 278.003C307.089 301.15 313.14 359.293 313.14 359.293L331.96 362.263L335.552 288.044L343.802 231.481C343.802 231.481 352.442 277.513 356.161 288.252C359.88 298.991 377.625 330.217 392.293 355.204L404.908 346.028C404.908 346.028 381.357 278.693 377.342 265.538C373.327 252.384 376.034 196.637 363.643 180.807L324.389 185.103Z" fill="#4CB8B8"/>
<path opacity="0.4" d="M324.389 185.103C324.389 185.103 309.658 254.856 308.373 278.003C307.089 301.15 313.14 359.293 313.14 359.293L331.96 362.263L335.552 288.044L343.802 231.481C343.802 231.481 352.442 277.513 356.161 288.252C359.88 298.991 377.625 330.217 392.293 355.204L404.908 346.028C404.908 346.028 381.357 278.693 377.342 265.538C373.327 252.384 376.034 196.637 363.643 180.807L324.389 185.103Z" fill="white"/>
<path d="M327.891 378.597C327.801 379.158 318.036 377.041 318.036 377.041L317.375 367.403L317.122 363.62L327.076 362.742C327.076 362.742 327.248 365.62 327.429 368.923C327.674 373.24 327.946 378.271 327.891 378.597Z" fill="#FFCC92"/>
<path opacity="0.2" d="M327.43 368.923L317.376 367.403L317.123 363.62L327.077 362.742C327.077 362.742 327.249 365.621 327.43 368.923Z" fill="black"/>
<path d="M310.889 380.429L310.491 379.88C310.367 379.709 307.459 375.677 307.913 373.696C308.008 373.285 308.234 372.981 308.587 372.792C309.011 372.566 309.336 372.662 309.534 372.783C310.959 373.652 310.91 379.13 310.9 379.751L310.889 380.429ZM309.089 373.108C309.012 373.108 308.918 373.129 308.802 373.192C308.566 373.318 308.42 373.516 308.355 373.798C308.042 375.164 309.662 377.829 310.448 379.018C310.422 377.095 310.191 373.714 309.299 373.17C309.249 373.138 309.182 373.108 309.089 373.108Z" fill="#4CB8B8"/>
<path d="M309.882 380.486L309.297 380.247C308.678 379.995 303.24 377.728 302.902 375.782C302.833 375.384 302.975 375.014 303.312 374.711C303.666 374.396 304.082 374.274 304.546 374.357C306.749 374.739 309.466 379.719 309.58 379.93L309.882 380.486ZM304.274 374.785C304.029 374.785 303.813 374.873 303.616 375.049C303.391 375.25 303.306 375.459 303.349 375.706C303.572 376.987 306.969 378.734 308.852 379.566C308.067 378.239 306.045 375.076 304.471 374.803C304.403 374.791 304.337 374.785 304.274 374.785Z" fill="#4CB8B8"/>
<path d="M327.567 378.064L317.473 376.471C316.844 376.372 316.208 376.509 315.674 376.856C314.25 377.785 311.109 379.62 307.921 380.076C303.604 380.693 299.761 379.843 299.403 381.085C299.045 382.327 299.457 384.34 301.258 385.273C302.675 386.008 320.076 388.712 327.417 389.83C329.064 390.081 330.501 388.716 330.346 387.057L329.719 380.356C329.609 379.19 328.724 378.246 327.567 378.064Z" fill="#222221"/>
<path d="M310.674 356.977L312.245 365.304L332.855 367.259L333.462 358.843L310.674 356.977Z" fill="#4CB8B8"/>
<path d="M411.244 356.444C411.525 356.942 402.557 361.349 402.557 361.349L396.621 354.824L393.508 351.394L396.675 348.399L400.765 344.526C400.765 344.526 401.19 345.006 401.878 345.766C402.774 346.78 404.122 348.3 405.525 349.874C408.222 352.924 411.099 356.19 411.244 356.444Z" fill="#FFCC92"/>
<path opacity="0.2" d="M405.525 349.874L396.62 354.824L393.507 351.394L396.674 348.399L401.877 345.766C402.774 346.779 404.122 348.299 405.525 349.874Z" fill="black"/>
<path d="M399.653 365.342L399.126 365.103C398.94 365.019 394.545 363.012 394.164 361.244C394.083 360.867 394.175 360.523 394.438 360.224C394.77 359.846 395.16 359.689 395.589 359.759C397.37 360.048 399.223 364.323 399.429 364.809L399.653 365.342ZM395.398 360.196C395.174 360.196 394.97 360.304 394.778 360.523C394.61 360.714 394.556 360.913 394.607 361.149C394.848 362.27 397.328 363.714 398.763 364.429C398.071 362.951 396.654 360.391 395.517 360.207C395.477 360.2 395.437 360.196 395.398 360.196Z" fill="#4CB8B8"/>
<path d="M393.068 367.441C391.96 367.441 391.016 367.268 390.52 366.788C390.144 366.425 390.032 365.927 390.19 365.311C390.359 364.653 390.752 364.182 391.359 363.909C393.97 362.733 399.802 365.699 400.049 365.826L400.553 366.085L400.01 366.245C399.783 366.312 395.893 367.441 393.068 367.441ZM392.877 364.083C392.373 364.083 391.919 364.154 391.545 364.323C391.063 364.539 390.763 364.9 390.628 365.425C390.511 365.877 390.579 366.218 390.834 366.463C392.032 367.621 396.916 366.615 399.309 365.972C398.091 365.401 395.042 364.083 392.877 364.083Z" fill="#4CB8B8"/>
<path d="M410.661 356.082L401.758 361.098C401.203 361.411 400.789 361.913 400.587 362.517C400.047 364.129 398.724 367.518 396.507 369.854C393.505 373.018 389.965 374.736 390.455 375.932C390.945 377.128 392.518 378.45 394.509 378.064C396.076 377.76 411.397 369.08 417.847 365.399C419.294 364.573 419.574 362.612 418.422 361.407L413.771 356.542C412.961 355.697 411.681 355.507 410.661 356.082Z" fill="#222221"/>
<path d="M384.905 350.933L391.305 356.486L408.677 345.225L403.929 338.251L384.905 350.933Z" fill="#4CB8B8"/>
<path d="M345.276 98.0274C345.83 97.7204 357.32 97.1994 368.271 99.5154C379.222 101.83 359.674 115.348 359.674 115.348L353.528 139.931L342.278 140.035L340.924 105.126L345.276 98.0274Z" fill="#EBEBEB"/>
<path d="M368.271 99.5142L344.412 137.159L347.055 97.6802C347.055 97.6802 338.383 97.8962 335.695 98.6942C333.007 99.4932 330.66 105.751 328.761 114.354C326.862 122.957 323.899 143.565 323.899 143.565L310.187 258.524C310.187 258.524 357.063 268.559 379.14 260.754C379.14 260.754 370.836 157.465 372.212 151.086C373.588 144.707 378.01 121.372 378.01 121.372C378.01 121.372 384.147 109.719 381.476 106.286C378.804 102.853 368.271 99.5142 368.271 99.5142Z" fill="#4CB8B8"/>
<path d="M340.135 171.955L343.542 263.214" stroke="white" stroke-width="0.75" stroke-miterlimit="10" stroke-linecap="round" stroke-linejoin="round"/>
<path d="M337.23 100.628L254.512 128.822L275.345 189.946L358.063 161.753L337.23 100.628Z" fill="#4CB8B8"/>
<path d="M337.239 100.638L275.349 189.958L263.729 184.694L242.897 123.567L325.619 95.375L337.239 100.638Z" fill="#4CB8B8"/>
<path opacity="0.7" d="M337.239 100.638L254.516 128.831L275.349 189.958L263.729 184.694L242.897 123.567L325.619 95.375L337.239 100.638Z" fill="white"/>
<path opacity="0.46" d="M337.23 100.628L254.512 128.822L275.345 189.946L358.063 161.753L337.23 100.628Z" fill="white"/>
<path d="M321.139 163.432C331.158 155.228 332.63 140.455 324.426 130.436C316.222 120.416 301.45 118.944 291.43 127.148C281.411 135.352 279.939 150.125 288.143 160.144C296.347 170.164 311.119 171.635 321.139 163.432Z" fill="#FAFAFA"/>
<path d="M318.468 136.758L309.082 140.239L305.665 131.024L298.412 133.714L301.83 142.928L291.506 146.756L294.163 153.924L304.488 150.095L307.873 159.225L315.125 156.535L311.74 147.405L321.125 143.925L318.468 136.758Z" fill="#E02D3C"/>
<path d="M346.968 49.1392V34.5872C346.968 34.5872 362.898 27.4252 378.129 42.0642L371.094 56.1772L346.968 49.1392Z" fill="#4CB8B8"/>
<path d="M362.32 36.6946L360.515 36.3384L359.425 41.8639L361.23 42.2202L362.32 36.6946Z" fill="white"/>
<path d="M358.264 37.8305L357.908 39.6357L363.434 40.7261L363.79 38.9209L358.264 37.8305Z" fill="white"/>
<path d="M370.034 75.9542C367.12 80.1442 364.451 79.5562 364.451 79.5562C363.284 81.8912 361.076 83.7912 361.076 83.7912C360.605 96.8582 364.451 100.387 364.451 100.387C360.488 106.559 355.51 106.341 350.506 104.595C345.502 102.849 345.248 98.8672 345.248 98.8672C349.773 96.6502 349.827 93.1752 349.175 90.7952C348.75 89.2572 348.035 88.1712 348.035 88.1712C339.547 85.8452 337.103 77.7012 337.683 70.0182C338.262 62.3352 341.058 56.5162 341.058 56.5162L346.062 48.9512L365.608 52.9152L366.658 63.2672L362.703 70.9502C369.681 65.8282 372.939 71.7642 370.034 75.9542Z" fill="#FFCC92"/>
<path d="M350.871 74.6897C351.708 74.7789 352.262 74.9386 352.279 74.9434C352.465 74.9984 352.572 75.1949 352.516 75.382C352.46 75.5681 352.266 75.6772 352.077 75.6198C352.03 75.6068 347.17 74.2167 344.673 77.6736C344.561 77.8316 344.341 77.8664 344.181 77.7529C344.024 77.6385 343.988 77.4185 344.103 77.2608C346.004 74.6284 349.083 74.4991 350.871 74.6897Z" fill="#263238"/>
<path d="M345.627 71.3321C345.835 71.2901 346.69 64.9521 346.69 64.9521L342.153 70.4101C342.153 70.4101 343.501 71.7581 345.627 71.3321Z" fill="#CCA375"/>
<path d="M352.661 65.0773C352.55 65.8723 352.061 66.4613 351.57 66.3923C351.078 66.3233 350.769 65.6233 350.88 64.8283C350.991 64.0333 351.48 63.4443 351.971 63.5133C352.463 63.5823 352.772 64.2823 352.661 65.0773Z" fill="#263238"/>
<path d="M343.044 64.1994C342.933 64.9944 342.444 65.5834 341.953 65.5144C341.461 65.4454 341.152 64.7454 341.263 63.9504C341.374 63.1554 341.863 62.5664 342.355 62.6354C342.846 62.7044 343.155 63.4054 343.044 64.1994Z" fill="#263238"/>
<path d="M356.583 61.5042C356.407 61.5042 356.237 61.4042 356.157 61.2332C354.97 58.6972 353.291 59.0292 353.218 59.0432C352.97 59.0972 352.715 58.9402 352.658 58.6892C352.6 58.4382 352.753 58.1882 353.003 58.1272C353.103 58.1042 355.481 57.5712 357.009 60.8342C357.119 61.0692 357.017 61.3492 356.782 61.4592C356.718 61.4902 356.65 61.5042 356.583 61.5042Z" fill="#263238"/>
<path d="M339.933 59.8254C339.816 59.8254 339.7 59.7824 339.608 59.6954C339.421 59.5154 339.413 59.2184 339.593 59.0304C339.705 58.9124 342.387 56.1674 345.773 57.5214C346.015 57.6184 346.131 57.8914 346.035 58.1334C345.938 58.3754 345.662 58.4894 345.424 58.3954C342.612 57.2704 340.296 59.6554 340.272 59.6804C340.181 59.7764 340.057 59.8254 339.933 59.8254Z" fill="#263238"/>
<path opacity="0.2" d="M352.37 87.6914C352.28 87.8454 350.958 89.9714 349.176 90.7954C348.751 89.2574 348.036 88.1714 348.036 88.1714C348.036 88.1714 350.641 88.4334 352.37 87.6914Z" fill="black"/>
<path d="M364.654 53.8784C364.654 53.8784 347.783 58.3874 341.062 56.0024C334.341 53.6174 336.687 45.3514 337.601 44.5714C338.844 43.5104 341.537 47.8894 341.537 47.8894C341.537 47.8894 339.329 43.1984 341.062 42.1684C342.795 41.1384 343.102 48.1184 349.356 47.4314C355.61 46.7454 373.116 41.9394 374.146 52.9234C375.176 63.9074 371.063 72.1834 371.063 72.1834C371.063 72.1834 370.134 66.2024 362.7 70.9474C362.7 70.9474 360.232 69.1924 362.704 66.7674C366.97 62.5844 365.5 57.0704 364.654 53.8784Z" fill="#263238"/>
<path d="M362.859 53.0275C362.859 53.0275 359.934 62.6145 365.315 62.1525C370.696 61.6895 367.396 51.6875 367.396 51.6875L362.859 53.0275Z" fill="#263238"/>
<path d="M348.688 47.9755C348.688 47.9755 345.171 45.3805 346.07 43.4985C346.969 41.6155 348.369 46.1585 355.383 45.3335C362.397 44.5085 370.707 43.8735 372.25 48.5255C373.793 53.1785 358.268 49.6275 358.268 49.6275L348.689 51.6875V47.9755H348.688Z" fill="#263238"/>
<path d="M347.465 162.464L340.703 160.546C340.703 160.546 332.683 160.059 332.033 163.113C331.383 166.167 330.99 171.418 334.21 171.842C337.429 172.267 347.286 171.638 347.286 171.638L347.465 162.464Z" fill="#FFCC92"/>
<path d="M370.575 116.035L381.476 106.287C381.476 106.287 394.993 136.245 395.747 147.822C396.502 159.4 387.603 164.526 380.053 166.468C372.503 168.41 347.476 173.581 347.476 173.581L346.127 159.662C346.127 159.662 372.781 155.115 383.045 150.402C383.045 150.402 373.767 123.55 370.575 116.035Z" fill="#4CB8B8"/>
<path opacity="0.1" d="M347.475 173.581L372.696 168.194L372.773 171.989L347.475 173.581Z" fill="black"/>
<path d="M350.504 104.592L353.368 112.167C353.368 112.167 359.89 107.573 365.894 100.754L361.729 93.834C361.729 93.834 357.922 101.408 350.504 104.592Z" fill="#FAFAFA"/>
<path d="M348.396 96.2988C348.396 96.2988 348.453 100.986 350.504 104.592L347.371 111.557C347.371 111.557 342.453 107.291 343.066 99.2498L348.396 96.2988Z" fill="#FAFAFA"/>
<path d="M60.1659 197.4V184.44L84.7259 149.4H101.926V183.8H108.086V197.4H101.926V207H86.0859V197.4H60.1659ZM87.2859 167.08L76.2459 183.8H87.2859V167.08ZM114.518 176.92C114.518 167.747 116.385 160.52 120.118 155.24C123.852 149.96 129.718 147.32 137.718 147.32C145.718 147.32 151.585 149.96 155.318 155.24C159.105 160.52 160.998 167.747 160.998 176.92C160.998 186.2 159.132 193.48 155.398 198.76C151.665 204.04 145.772 206.68 137.718 206.68C129.665 206.68 123.772 204.04 120.038 198.76C116.358 193.48 114.518 186.2 114.518 176.92ZM145.478 176.92C145.478 172.12 144.972 168.467 143.958 165.96C142.945 163.4 140.865 162.12 137.718 162.12C134.572 162.12 132.492 163.4 131.478 165.96C130.465 168.467 129.958 172.12 129.958 176.92C129.958 181.827 130.438 185.56 131.398 188.12C132.412 190.627 134.518 191.88 137.718 191.88C140.918 191.88 142.998 190.627 143.958 188.12C144.972 185.56 145.478 181.827 145.478 176.92ZM165.417 163.24V148.52H190.057V207H173.657V163.24H165.417Z" fill="#038992"/>
<path d="M86.6091 234.15C85.8791 234.15 85.2341 234.055 84.6741 233.865C84.1241 233.675 83.6591 233.395 83.2791 233.025C82.8991 232.645 82.6141 232.175 82.4241 231.615C82.2341 231.055 82.1391 230.405 82.1391 229.665V224.28C82.1391 223.95 82.2191 223.705 82.3791 223.545C82.5491 223.385 82.7891 223.305 83.0991 223.305C83.4091 223.305 83.6441 223.385 83.8041 223.545C83.9741 223.705 84.0591 223.95 84.0591 224.28V229.65C84.0591 230.6 84.2741 231.315 84.7041 231.795C85.1441 232.265 85.7791 232.5 86.6091 232.5C87.4391 232.5 88.0691 232.265 88.4991 231.795C88.9291 231.315 89.1441 230.6 89.1441 229.65V224.28C89.1441 223.95 89.2241 223.705 89.3841 223.545C89.5541 223.385 89.7941 223.305 90.1041 223.305C90.4041 223.305 90.6341 223.385 90.7941 223.545C90.9641 223.705 91.0491 223.95 91.0491 224.28V229.665C91.0491 230.645 90.8791 231.47 90.5391 232.14C90.2091 232.81 89.7141 233.315 89.0541 233.655C88.3941 233.985 87.5791 234.15 86.6091 234.15ZM94.0383 234.12C93.7383 234.12 93.5083 234.04 93.3483 233.88C93.1883 233.71 93.1083 233.47 93.1083 233.16V227.49C93.1083 227.18 93.1883 226.945 93.3483 226.785C93.5083 226.625 93.7333 226.545 94.0233 226.545C94.3133 226.545 94.5383 226.625 94.6983 226.785C94.8583 226.945 94.9383 227.18 94.9383 227.49V228.51L94.7733 228.135C94.9933 227.605 95.3333 227.205 95.7933 226.935C96.2633 226.655 96.7933 226.515 97.3833 226.515C97.9733 226.515 98.4583 226.625 98.8383 226.845C99.2183 227.065 99.5033 227.4 99.6933 227.85C99.8833 228.29 99.9783 228.85 99.9783 229.53V233.16C99.9783 233.47 99.8983 233.71 99.7383 233.88C99.5783 234.04 99.3483 234.12 99.0483 234.12C98.7483 234.12 98.5133 234.04 98.3433 233.88C98.1833 233.71 98.1033 233.47 98.1033 233.16V229.62C98.1033 229.05 97.9933 228.635 97.7733 228.375C97.5633 228.115 97.2333 227.985 96.7833 227.985C96.2333 227.985 95.7933 228.16 95.4633 228.51C95.1433 228.85 94.9833 229.305 94.9833 229.875V233.16C94.9833 233.8 94.6683 234.12 94.0383 234.12ZM104.298 234.15C103.768 234.15 103.293 234.05 102.873 233.85C102.463 233.64 102.138 233.36 101.898 233.01C101.668 232.66 101.553 232.265 101.553 231.825C101.553 231.285 101.693 230.86 101.973 230.55C102.253 230.23 102.708 230 103.338 229.86C103.968 229.72 104.813 229.65 105.873 229.65H106.623V230.73H105.888C105.268 230.73 104.773 230.76 104.403 230.82C104.033 230.88 103.768 230.985 103.608 231.135C103.458 231.275 103.383 231.475 103.383 231.735C103.383 232.065 103.498 232.335 103.728 232.545C103.958 232.755 104.278 232.86 104.688 232.86C105.018 232.86 105.308 232.785 105.558 232.635C105.818 232.475 106.023 232.26 106.173 231.99C106.323 231.72 106.398 231.41 106.398 231.06V229.335C106.398 228.835 106.288 228.475 106.068 228.255C105.848 228.035 105.478 227.925 104.958 227.925C104.668 227.925 104.353 227.96 104.013 228.03C103.683 228.1 103.333 228.22 102.963 228.39C102.773 228.48 102.603 228.505 102.453 228.465C102.313 228.425 102.203 228.345 102.123 228.225C102.043 228.095 102.003 227.955 102.003 227.805C102.003 227.655 102.043 227.51 102.123 227.37C102.203 227.22 102.338 227.11 102.528 227.04C102.988 226.85 103.428 226.715 103.848 226.635C104.278 226.555 104.668 226.515 105.018 226.515C105.738 226.515 106.328 226.625 106.788 226.845C107.258 227.065 107.608 227.4 107.838 227.85C108.068 228.29 108.183 228.86 108.183 229.56V233.16C108.183 233.47 108.108 233.71 107.958 233.88C107.808 234.04 107.593 234.12 107.313 234.12C107.033 234.12 106.813 234.04 106.653 233.88C106.503 233.71 106.428 233.47 106.428 233.16V232.44H106.548C106.478 232.79 106.338 233.095 106.128 233.355C105.928 233.605 105.673 233.8 105.363 233.94C105.053 234.08 104.698 234.15 104.298 234.15ZM112.741 234.15C112.131 234.15 111.626 234.04 111.226 233.82C110.826 233.59 110.526 233.25 110.326 232.8C110.136 232.35 110.041 231.79 110.041 231.12V227.49C110.041 227.17 110.121 226.935 110.281 226.785C110.441 226.625 110.671 226.545 110.971 226.545C111.271 226.545 111.501 226.625 111.661 226.785C111.831 226.935 111.916 227.17 111.916 227.49V231.15C111.916 231.67 112.021 232.055 112.231 232.305C112.441 232.555 112.776 232.68 113.236 232.68C113.736 232.68 114.146 232.51 114.466 232.17C114.786 231.82 114.946 231.36 114.946 230.79V227.49C114.946 227.17 115.026 226.935 115.186 226.785C115.346 226.625 115.576 226.545 115.876 226.545C116.176 226.545 116.406 226.625 116.566 226.785C116.736 226.935 116.821 227.17 116.821 227.49V233.16C116.821 233.8 116.516 234.12 115.906 234.12C115.616 234.12 115.391 234.04 115.231 233.88C115.071 233.71 114.991 233.47 114.991 233.16V232.02L115.201 232.47C114.991 233.01 114.671 233.425 114.241 233.715C113.821 234.005 113.321 234.15 112.741 234.15ZM122.132 234.15C121.482 234.15 120.937 234.04 120.497 233.82C120.067 233.6 119.747 233.28 119.537 232.86C119.327 232.43 119.222 231.9 119.222 231.27V228.075H118.442C118.202 228.075 118.017 228.015 117.887 227.895C117.757 227.765 117.692 227.59 117.692 227.37C117.692 227.14 117.757 226.965 117.887 226.845C118.017 226.725 118.202 226.665 118.442 226.665H119.222V225.3C119.222 224.99 119.302 224.755 119.462 224.595C119.632 224.435 119.867 224.355 120.167 224.355C120.467 224.355 120.697 224.435 120.857 224.595C121.017 224.755 121.097 224.99 121.097 225.3V226.665H122.687C122.927 226.665 123.112 226.725 123.242 226.845C123.372 226.965 123.437 227.14 123.437 227.37C123.437 227.59 123.372 227.765 123.242 227.895C123.112 228.015 122.927 228.075 122.687 228.075H121.097V231.165C121.097 231.645 121.202 232.005 121.412 232.245C121.622 232.485 121.962 232.605 122.432 232.605C122.602 232.605 122.752 232.59 122.882 232.56C123.012 232.53 123.127 232.51 123.227 232.5C123.347 232.49 123.447 232.53 123.527 232.62C123.607 232.7 123.647 232.87 123.647 233.13C123.647 233.33 123.612 233.51 123.542 233.67C123.482 233.82 123.367 233.925 123.197 233.985C123.067 234.025 122.897 234.06 122.687 234.09C122.477 234.13 122.292 234.15 122.132 234.15ZM125.65 234.12C125.35 234.12 125.12 234.04 124.96 233.88C124.8 233.71 124.72 233.47 124.72 233.16V224.25C124.72 223.94 124.8 223.705 124.96 223.545C125.12 223.385 125.35 223.305 125.65 223.305C125.95 223.305 126.18 223.385 126.34 223.545C126.51 223.705 126.595 223.94 126.595 224.25V228.135H126.385C126.605 227.605 126.945 227.205 127.405 226.935C127.875 226.655 128.405 226.515 128.995 226.515C129.585 226.515 130.07 226.625 130.45 226.845C130.83 227.065 131.115 227.4 131.305 227.85C131.495 228.29 131.59 228.85 131.59 229.53V233.16C131.59 233.47 131.51 233.71 131.35 233.88C131.19 234.04 130.96 234.12 130.66 234.12C130.36 234.12 130.125 234.04 129.955 233.88C129.795 233.71 129.715 233.47 129.715 233.16V229.62C129.715 229.05 129.605 228.635 129.385 228.375C129.175 228.115 128.845 227.985 128.395 227.985C127.845 227.985 127.405 228.16 127.075 228.51C126.755 228.85 126.595 229.305 126.595 229.875V233.16C126.595 233.8 126.28 234.12 125.65 234.12ZM136.839 234.15C136.079 234.15 135.419 233.995 134.859 233.685C134.299 233.375 133.864 232.935 133.554 232.365C133.244 231.785 133.089 231.105 133.089 230.325C133.089 229.735 133.174 229.21 133.344 228.75C133.524 228.28 133.779 227.88 134.109 227.55C134.439 227.21 134.834 226.955 135.294 226.785C135.754 226.605 136.269 226.515 136.839 226.515C137.599 226.515 138.259 226.67 138.819 226.98C139.379 227.29 139.814 227.73 140.124 228.3C140.434 228.87 140.589 229.545 140.589 230.325C140.589 230.915 140.499 231.445 140.319 231.915C140.149 232.385 139.899 232.79 139.569 233.13C139.239 233.46 138.844 233.715 138.384 233.895C137.924 234.065 137.409 234.15 136.839 234.15ZM136.839 232.725C137.209 232.725 137.534 232.635 137.814 232.455C138.094 232.275 138.309 232.01 138.459 231.66C138.619 231.3 138.699 230.855 138.699 230.325C138.699 229.525 138.529 228.93 138.189 228.54C137.849 228.14 137.399 227.94 136.839 227.94C136.469 227.94 136.144 228.03 135.864 228.21C135.584 228.38 135.364 228.645 135.204 229.005C135.054 229.355 134.979 229.795 134.979 230.325C134.979 231.115 135.149 231.715 135.489 232.125C135.829 232.525 136.279 232.725 136.839 232.725ZM143.097 234.12C142.787 234.12 142.547 234.04 142.377 233.88C142.217 233.71 142.137 233.47 142.137 233.16V227.49C142.137 227.18 142.217 226.945 142.377 226.785C142.537 226.625 142.762 226.545 143.052 226.545C143.342 226.545 143.567 226.625 143.727 226.785C143.887 226.945 143.967 227.18 143.967 227.49V228.435H143.817C143.957 227.835 144.232 227.38 144.642 227.07C145.052 226.76 145.597 226.575 146.277 226.515C146.487 226.495 146.652 226.55 146.772 226.68C146.902 226.8 146.977 226.99 146.997 227.25C147.017 227.5 146.957 227.705 146.817 227.865C146.687 228.015 146.487 228.105 146.217 228.135L145.887 228.165C145.277 228.225 144.817 228.415 144.507 228.735C144.197 229.045 144.042 229.485 144.042 230.055V233.16C144.042 233.47 143.962 233.71 143.802 233.88C143.642 234.04 143.407 234.12 143.097 234.12ZM148.941 234.105C148.641 234.105 148.411 234.015 148.251 233.835C148.091 233.655 148.011 233.405 148.011 233.085V227.58C148.011 227.25 148.091 227 148.251 226.83C148.411 226.65 148.641 226.56 148.941 226.56C149.241 226.56 149.471 226.65 149.631 226.83C149.801 227 149.886 227.25 149.886 227.58V233.085C149.886 233.405 149.806 233.655 149.646 233.835C149.486 234.015 149.251 234.105 148.941 234.105ZM148.941 225.165C148.591 225.165 148.316 225.08 148.116 224.91C147.926 224.73 147.831 224.485 147.831 224.175C147.831 223.855 147.926 223.61 148.116 223.44C148.316 223.27 148.591 223.185 148.941 223.185C149.301 223.185 149.576 223.27 149.766 223.44C149.956 223.61 150.051 223.855 150.051 224.175C150.051 224.485 149.956 224.73 149.766 224.91C149.576 225.08 149.301 225.165 148.941 225.165ZM152.284 234C152.094 234 151.934 233.955 151.804 233.865C151.684 233.765 151.604 233.64 151.564 233.49C151.524 233.34 151.524 233.18 151.564 233.01C151.614 232.83 151.709 232.66 151.849 232.5L155.734 227.625V228.075H152.194C151.964 228.075 151.784 228.015 151.654 227.895C151.534 227.765 151.474 227.59 151.474 227.37C151.474 227.14 151.534 226.965 151.654 226.845C151.784 226.725 151.964 226.665 152.194 226.665H156.634C156.854 226.665 157.034 226.715 157.174 226.815C157.314 226.905 157.404 227.025 157.444 227.175C157.494 227.325 157.499 227.485 157.459 227.655C157.419 227.825 157.329 227.985 157.189 228.135L153.229 233.085V232.59H156.979C157.459 232.59 157.699 232.825 157.699 233.295C157.699 233.515 157.634 233.69 157.504 233.82C157.384 233.94 157.209 234 156.979 234H152.284ZM162.407 234.15C161.577 234.15 160.862 233.995 160.262 233.685C159.662 233.375 159.197 232.935 158.867 232.365C158.547 231.795 158.387 231.12 158.387 230.34C158.387 229.58 158.542 228.915 158.852 228.345C159.172 227.775 159.607 227.33 160.157 227.01C160.717 226.68 161.352 226.515 162.062 226.515C162.582 226.515 163.047 226.6 163.457 226.77C163.877 226.94 164.232 227.185 164.522 227.505C164.822 227.825 165.047 228.215 165.197 228.675C165.357 229.125 165.437 229.635 165.437 230.205C165.437 230.385 165.372 230.525 165.242 230.625C165.122 230.715 164.947 230.76 164.717 230.76H159.902V229.68H164.117L163.877 229.905C163.877 229.445 163.807 229.06 163.667 228.75C163.537 228.44 163.342 228.205 163.082 228.045C162.832 227.875 162.517 227.79 162.137 227.79C161.717 227.79 161.357 227.89 161.057 228.09C160.767 228.28 160.542 228.555 160.382 228.915C160.232 229.265 160.157 229.685 160.157 230.175V230.28C160.157 231.1 160.347 231.715 160.727 232.125C161.117 232.525 161.687 232.725 162.437 232.725C162.697 232.725 162.987 232.695 163.307 232.635C163.637 232.565 163.947 232.45 164.237 232.29C164.447 232.17 164.632 232.12 164.792 232.14C164.952 232.15 165.077 232.205 165.167 232.305C165.267 232.405 165.327 232.53 165.347 232.68C165.367 232.82 165.337 232.965 165.257 233.115C165.187 233.265 165.062 233.395 164.882 233.505C164.532 233.725 164.127 233.89 163.667 234C163.217 234.1 162.797 234.15 162.407 234.15ZM169.742 234.15C169.102 234.15 168.537 233.995 168.047 233.685C167.567 233.375 167.192 232.935 166.922 232.365C166.652 231.785 166.517 231.105 166.517 230.325C166.517 229.535 166.652 228.86 166.922 228.3C167.192 227.73 167.567 227.29 168.047 226.98C168.537 226.67 169.102 226.515 169.742 226.515C170.352 226.515 170.882 226.665 171.332 226.965C171.792 227.265 172.102 227.66 172.262 228.15H172.097V224.25C172.097 223.94 172.177 223.705 172.337 223.545C172.497 223.385 172.727 223.305 173.027 223.305C173.327 223.305 173.557 223.385 173.717 223.545C173.887 223.705 173.972 223.94 173.972 224.25V233.16C173.972 233.47 173.892 233.71 173.732 233.88C173.572 234.04 173.342 234.12 173.042 234.12C172.742 234.12 172.512 234.04 172.352 233.88C172.192 233.71 172.112 233.47 172.112 233.16V231.99L172.277 232.44C172.127 232.96 171.822 233.375 171.362 233.685C170.902 233.995 170.362 234.15 169.742 234.15ZM170.267 232.725C170.637 232.725 170.962 232.635 171.242 232.455C171.522 232.275 171.737 232.01 171.887 231.66C172.047 231.3 172.127 230.855 172.127 230.325C172.127 229.525 171.957 228.93 171.617 228.54C171.277 228.14 170.827 227.94 170.267 227.94C169.897 227.94 169.572 228.03 169.292 228.21C169.012 228.38 168.792 228.645 168.632 229.005C168.482 229.355 168.407 229.795 168.407 230.325C168.407 231.115 168.577 231.715 168.917 232.125C169.257 232.525 169.707 232.725 170.267 232.725Z" fill="#A1A8B0"/>
</svg>
